<svg xmlns="http://www.w3.org/2000/svg"><symbol id="icon-android" viewBox="0 0 24 24"><path d="M6 18a1 1 0 0 0 1 1h1v3.5a1.5 1.5 0 1 0 3 0V19h2v3.5a1.5 1.5 0 1 0 3 0V19h1a1 1 0 0 0 1-1V8H6v10zM3.5 8C2.67 8 2 8.67 2 9.5v7a1.5 1.5 0 1 0 3 0v-7C5 8.67 4.33 8 3.5 8zm17 0c-.83 0-1.5.67-1.5 1.5v7a1.5 1.5 0 1 0 3 0v-7c0-.83-.67-1.5-1.5-1.5zm-4.97-5.84 1.3-1.3a.5.5 0 0 0 0-.71.5.5 0 0 0-.71 0l-1.48 1.48a5.84 5.84 0 0 0-5.3 0L7.85.15a.5.5 0 0 0-.71 0 .5.5 0 0 0 0 .71l1.31 1.31A5.98 5.98 0 0 0 6 7h12c0-1.99-.97-3.75-2.47-4.84zM10 5H9V4h1v1zm5 0h-1V4h1v1z"/></symbol><symbol id="icon-anthony-oneal" viewBox="0 0 24 24"><path fill-rule="evenodd" d="M17.37 5a6.61 6.61 0 0 1 6.61 6.6 6.62 6.62 0 0 1-13.22 0 6.6 6.6 0 0 1 6.6-6.6zm-12.1.3 5 12.18H7.6l-.5-1.28H3.17l-.47 1.27H0L5.02 5.29h.25zm12.1.64a5.67 5.67 0 1 0 .01 11.33 5.67 5.67 0 0 0-.01-11.33zm0 1.47a4.2 4.2 0 1 1 0 8.4 4.2 4.2 0 0 1 0-8.4zm0 .94a3.25 3.25 0 1 0 0 6.5 3.25 3.25 0 0 0 0-6.5zm-12.22 2.6-1.12 3.06h2.2l-1.08-3.06z"/></symbol><symbol id="icon-apple" viewBox="0 0 24 24"><path fill-rule="evenodd" d="M16.37 5.96c1.75 0 3.54.94 4.8 2.5l.75.93-1.05.57a3.47 3.47 0 0 0-1.85 3.36c.1 1.45 1 2.66 2.33 3.17l1 .37-.44.97a15.88 15.88 0 0 1-1.43 2.68c-1.13 1.71-2.54 3.47-4.5 3.49-1.63 0-1.85-.8-3.6-.89-1.59.01-1.95.89-3.6.89h-.03c-2-.02-3.42-1.79-4.43-3.32C1.76 16.8 1.26 11.9 3.1 9.06a6.46 6.46 0 0 1 5.23-3.1c1.03 0 1.84.29 2.54.54.54.2 1.01.36 1.48.36.42 0 .8-.14 1.27-.32a7.16 7.16 0 0 1 2.74-.58zm-.3-5.72a4.34 4.34 0 0 1-.97 3.21c-.7.9-1.9 1.58-3.05 1.55-.21-1.15.33-2.34.99-3.14A4.69 4.69 0 0 1 16.06.24z"/></symbol><symbol id="icon-arrow-left" viewBox="0 0 24 24"><path fill-rule="evenodd" d="M9.7 4.3a1 1 0 0 0-1.4 0l-7 7a1 1 0 0 0-.3.7v-.09a1 1 0 0 0 0 .06V12a1.02 1.02 0 0 0 .2.6 1 1 0 0 0 .1.1l-.09-.08h.01l.07.09 7 7a1 1 0 0 0 1.42-1.42L4.4 13H22a1 1 0 0 0 1-.88V12a1 1 0 0 0-1-1H4.41l5.3-5.3a1 1 0 0 0 .08-1.31z"/></symbol><symbol id="icon-arrow-right" viewBox="0 0 24 24"><path fill-rule="evenodd" d="M14.3 4.3a1 1 0 0 1 1.4 0l7 7a1 1 0 0 1 .3.7v-.09a1 1 0 0 1 0 .06V12a1.02 1.02 0 0 1-.2.6 1 1 0 0 1-.1.1l.09-.08h-.01l-.07.09-7 7a1 1 0 0 1-1.42-1.42L19.6 13H2a1 1 0 0 1-1-.88V12a1 1 0 0 1 1-1h17.59l-5.3-5.3a1 1 0 0 1-.08-1.31z"/></symbol><symbol id="icon-at-sign" viewBox="0 0 24 24"><path fill-rule="evenodd" d="M17.012 2.843C12.435.985 7.268 2.385 4.848 5.2c-1.372 1.596-2.486 4.037-2.775 6.617-.287 2.566.247 5.178 2.036 7.237 1.827 2.102 4.464 2.858 7.063 2.939 2.601.08 5.014-.522 6.165-.962a1 1 0 0 1 .714 1.868c-1.363.52-4.04 1.183-6.941 1.092-2.903-.09-6.18-.943-8.51-3.625C.357 17.787-.249 14.573.085 11.594c.332-2.965 1.601-5.786 3.246-7.698C6.363.37 12.468-1.161 17.766.99l.003.001a10.071 10.071 0 0 1 6.207 10.322c-.091 1.387-.355 2.93-1.01 4.186-.682 1.306-1.825 2.355-3.592 2.493-.833.065-1.559-.078-2.17-.404a3.55 3.55 0 0 1-1.346-1.287 4.494 4.494 0 0 1-.194-.347 6.505 6.505 0 0 1-1.965 1.48c-1.45.704-3.202.853-4.754.025-1.557-.83-2.25-2.226-2.452-3.615-.197-1.356.058-2.753.416-3.81.368-1.092 1.165-2.599 2.778-3.563 1.642-.981 3.944-1.29 7.082-.332a1 1 0 0 1 .699 1.094A50.094 50.094 0 0 0 17 13.419c.09.599.227 1.296.557 1.827.161.26.352.452.586.577.23.122.566.214 1.074.175.916-.071 1.527-.568 1.974-1.424.47-.9.706-2.126.789-3.408l.003-.037a8.071 8.071 0 0 0-4.972-8.286ZM15.002 13.3a52.11 52.11 0 0 1 .371-5.47c-2.28-.543-3.732-.197-4.66.358-1.061.634-1.63 1.656-1.91 2.486-.291.864-.469 1.931-.33 2.882.133.92.545 1.675 1.414 2.138.874.467 1.938.427 2.938-.06a4.461 4.461 0 0 0 2.177-2.334Z"/></symbol><symbol id="icon-audio-outlined" viewBox="0 0 24 24"><path fill-rule="evenodd" d="M12 1a11 11 0 0 1 11 10.71v8.47a2.8 2.8 0 0 1-2.65 2.81l-.17.01h-3.63a1 1 0 0 1-1-1v-7.27a1 1 0 0 1 1-1H21V12a9 9 0 0 0-18-.27v2h4.45a1 1 0 0 1 1 .88V22a1 1 0 0 1-.88 1H3.82A2.82 2.82 0 0 1 1 20.35V12A11 11 0 0 1 12 1zM6.45 15.73H3v4.45c0 .42.31.76.72.81l.1.01h2.63v-5.27zm14.55 0h-3.45V21h2.63c.45 0 .82-.37.82-.82v-4.45z"/></symbol><symbol id="icon-audio" viewBox="0 0 24 24"><path fill-rule="evenodd" d="M12 1A11 11 0 0 0 1 12v8.25A2.75 2.75 0 0 0 3.75 23h3.67c.5 0 .91-.41.91-.92v-7.33c0-.5-.4-.92-.91-.92H2.83V12a9.18 9.18 0 0 1 18.34 0v1.83h-4.59c-.5 0-.91.41-.91.92v7.33c0 .5.4.92.91.92h3.67A2.75 2.75 0 0 0 23 20.25V12A11 11 0 0 0 12 1z"/></symbol><symbol id="icon-avatar-outlined" viewBox="0 0 24 24"><path fill-rule="evenodd" d="M12 1a11 11 0 0 1 7.03 19.46l-.03.03A11 11 0 1 1 12 1zm.56 13.78a4.58 4.58 0 0 1-1.12 0 3.55 3.55 0 0 1-2.3 2.43c-1.63.54-2.25 1-2.44 2.06a8.95 8.95 0 0 0 10.6 0c-.19-1.06-.82-1.52-2.43-2.06a3.57 3.57 0 0 1-2.3-2.43zM12 3a9 9 0 0 0-6.91 14.76c.56-1.16 1.66-1.86 3.41-2.45.51-.17.85-.6 1.05-1.2a4.63 4.63 0 0 1-2.19-3.93v-.9a4.64 4.64 0 0 1 9.28 0v.9c0 1.66-.88 3.12-2.19 3.94.2.59.54 1.02 1.05 1.19 1.75.58 2.85 1.29 3.41 2.45A9 9 0 0 0 12 3zm0 3.64a2.64 2.64 0 0 0-2.64 2.63v.91a2.64 2.64 0 0 0 5.28 0v-.9A2.64 2.64 0 0 0 12 6.63z"/></symbol><symbol id="icon-avatar" viewBox="0 0 24 24"><path fill-rule="evenodd" d="M12 1a11.01 11.01 0 0 0 0 22 11.01 11.01 0 0 0 0-22zm0 20.17c-2.47 0-4.7-.99-6.36-2.58.28-1.75 1.54-2.43 3.15-2.97 1.09-.36 1.55-1.31 1.76-2.09a3.67 3.67 0 0 1-2.22-3.36v-.92a3.67 3.67 0 0 1 7.34 0v.92c0 1.5-.92 2.8-2.22 3.36.2.78.68 1.74 1.76 2.1 1.61.53 2.88 1.19 3.15 2.96A9.13 9.13 0 0 1 12 21.17z"/></symbol><symbol id="icon-baby-steps" viewBox="0 0 24 24"><path d="M0 14.25a80 80 0 0 1 10.22 2.33v7.66A87.38 87.38 0 0 0 0 17.97v-3.72zm16.26-5v6.27a188.9 188.9 0 0 0-11.15-2.09V9.72c5.34-.24 11.15-.47 11.15-.47zM23.93 0v6.27c-4.6.46-12.16 1.38-12.31 1.4V4.18C16.95 2.32 23.91 0 23.91 0z"/></symbol><symbol id="icon-bank-outlined" viewBox="0 0 24 24"><path fill-rule="evenodd" d="M2 20.1h20a1 1 0 0 1 .12 1.98l-.12.01H2a1 1 0 0 1-.12-2H22zm1.82-8.2a1 1 0 0 1 1 .9v5.56a1 1 0 0 1-2 .12v-5.57a1 1 0 0 1 1-1zm5.45 0a1 1 0 0 1 1 .9v5.56a1 1 0 0 1-2 .12v-5.57a1 1 0 0 1 1-1zm5.46 0a1 1 0 0 1 1 .9v5.56a1 1 0 0 1-2 .12v-5.57a1 1 0 0 1 1-1zm5.45 0a1 1 0 0 1 1 .9v5.56a1 1 0 0 1-2 .12v-5.57a1 1 0 0 1 1-1zM12.36 1.08l.12.05 10 5.46a1 1 0 0 1 .51.75l.01.12v2.73a1 1 0 0 1-.88 1H2a1 1 0 0 1-1-.88V7.45a1 1 0 0 1 .42-.8l.1-.07 10-5.46a1 1 0 0 1 .84-.05zM12 3.14l-9 4.9v1.14h18V8.05l-9-4.91zm0 2.5a.9.9 0 1 1 0 1.81.9.9 0 0 1 0-1.81z"/></symbol><symbol id="icon-bank" viewBox="0 0 24 24"><path fill-rule="evenodd" d="M4.67 13.42v7.33h3.66v-7.33h1.84v7.33h3.66v-7.33h1.84v7.33h3.66v-7.33h1.84v7.33h.91a.92.92 0 1 1 0 1.83H1.92a.92.92 0 1 1 0-1.83h.91v-7.33h1.84zm6.9-11.8c.27-.16.6-.16.87 0l10.08 5.5c.3.15.48.46.48.8v2.75c0 .5-.41.91-.92.91H1.92a.92.92 0 0 1-.92-.91V7.92c0-.34.18-.65.48-.8zM12 5.16a1.83 1.83 0 1 0 0 3.66 1.83 1.83 0 0 0 0-3.66z"/></symbol><symbol id="icon-calendar" viewBox="0 0 24 24"><path fill-rule="evenodd" d="M16.58 1c.51 0 .92.41.92.92v1.83h4.58c.51 0 .92.41.92.92v16.5c0 .5-.41.91-.92.91H1.92a.92.92 0 0 1-.92-.91V4.67c0-.51.41-.92.92-.92H6.5V1.92a.92.92 0 0 1 1.83 0v1.83h7.34V1.92c0-.51.4-.92.91-.92zm4.59 6.42H2.83v12.83h18.34V7.42zM8.33 14.75v2.75H4.67v-2.75h3.66zm5.5 0v2.75h-3.66v-2.75h3.66zm-5.5-4.58v2.75H4.67v-2.75h3.66zm5.5 0v2.75h-3.66v-2.75h3.66zm5.5 0v2.75h-3.66v-2.75h3.66z"/></symbol><symbol id="icon-cart-outlined" viewBox="0 0 24 24"><path fill-rule="evenodd" d="M4.55 19.58a1.75 1.75 0 1 1 0 3.5 1.75 1.75 0 0 1 0-3.5zm14.94 0a1.75 1.75 0 1 1 0 3.5 1.75 1.75 0 0 1 0-3.5zM1.21 1.29a1 1 0 0 1 1.41 0l2.34 2.34h16.29a1 1 0 0 1 .98 1.17l-.03.12-2.63 8.77a1 1 0 0 1-.84.7H5.04L3.9 15.92h18.22a1 1 0 1 1 0 2H1.88a1 1 0 0 1-.8-1.61l2.47-3.24V5.04L1.2 2.71a1 1 0 0 1 0-1.42zm4.34 11.1h12.32l2.03-6.76H5.55v6.77z"/></symbol><symbol id="icon-cart" viewBox="0 0 24 24"><path fill-rule="evenodd" d="M4.67 19.33a1.83 1.83 0 1 1 0 3.67 1.83 1.83 0 0 1 0-3.67zm14.66 0a1.83 1.83 0 1 1 0 3.67 1.83 1.83 0 0 1 0-3.67zM2.47 1.2l.1.08 2.48 2.48h16.12a.92.92 0 0 1 .9 1.09l-.03.12-2.75 8.25a.91.91 0 0 1-.76.62H5.12l-1.37 1.84h18.33a.92.92 0 0 1 .11 1.82l-.1.01H1.91a.92.92 0 0 1-.8-1.36l.06-.1 2.57-3.43V5.05L1.27 2.56a.92.92 0 0 1 1.2-1.37z"/></symbol><symbol id="icon-chat-outlined" viewBox="0 0 24 24"><path fill-rule="evenodd" d="M12 2c6.06 0 11 4.04 11 9.18 0 1.95-.75 3.8-2.09 5.37l-.23.26.5 4.26a1 1 0 0 1-1.27 1.07l-.1-.03-5.05-2.06c-.85.22-1.73.31-2.76.31-6.06 0-11-4.03-11-9.18C1 6.04 5.94 2 12 2zm0 2c-5.04 0-9 3.24-9 7.18 0 3.94 3.96 7.18 9 7.18 1 0 1.78-.1 2.53-.32a1 1 0 0 1 .54 0l.12.03 3.8 1.55-.35-3.05a1 1 0 0 1 .29-.82A6.47 6.47 0 0 0 21 11.18C21 7.24 17.04 4 12 4zm.9 8a1 1 0 1 1 0 2H8.37a1 1 0 0 1 0-2zM8.37 8.36h7.28a1 1 0 0 1 .11 2h-7.4a1 1 0 0 1-.11-1.99h7.39z"/></symbol><symbol id="icon-chat" viewBox="0 0 24 24"><path fill-rule="evenodd" d="M12 2c6.06 0 11 4.04 11 9.18 0 1.95-.75 3.8-2.09 5.37l-.23.26.5 4.26a1 1 0 0 1-1.27 1.07l-.1-.03-5.05-2.06c-.85.22-1.73.31-2.76.31-6.06 0-11-4.03-11-9.18C1 6.04 5.94 2 12 2zm.9 10H8.37a1 1 0 0 0 0 2h4.55a1 1 0 1 0 0-2zm2.74-3.64H8.36a1 1 0 1 0 0 2h7.28a1 1 0 0 0 0-2z"/></symbol><symbol id="icon-checkmark" viewBox="0 0 24 24"><path fill-rule="evenodd" d="M8.46 17.2 2.1 10.82a1 1 0 1 0-1.4 1.42l7.07 7.07a1 1 0 0 0 1.41 0L23.31 5.17a1 1 0 1 0-1.41-1.41L8.46 17.19z"/></symbol><symbol id="icon-chevron-down" viewBox="0 0 24 24"><path fill-rule="evenodd" d="m12 15.59-9.3-9.3a1 1 0 0 0-1.4 1.42l10 10a1 1 0 0 0 1.4 0l10-10a1 1 0 1 0-1.4-1.42L12 15.6z"/></symbol><symbol id="icon-chevron-left" viewBox="0 0 24 24"><path fill-rule="evenodd" d="M17.7 2.7a1 1 0 1 0-1.4-1.4l-10 10a1 1 0 0 0 0 1.4l10 10a1 1 0 0 0 1.4-1.4L8.42 12l9.3-9.3z"/></symbol><symbol id="icon-chevron-right" viewBox="0 0 24 24"><path fill-rule="evenodd" d="m15.59 12-9.3 9.3a1 1 0 0 0 1.42 1.4l10-10a1 1 0 0 0 0-1.4l-10-10a1 1 0 1 0-1.42 1.4l9.3 9.3z"/></symbol><symbol id="icon-chevron-up" viewBox="0 0 24 24"><path fill-rule="evenodd" d="m12 8.41 9.3 9.3a1 1 0 0 0 1.4-1.42l-10-10a1 1 0 0 0-1.4 0l-10 10a1 1 0 0 0 1.4 1.42L12 8.4z"/></symbol><symbol id="icon-close" viewBox="0 0 24 24"><path fill-rule="evenodd" d="M1.3 1.3a1 1 0 0 1 1.4 0l9.3 9.29 9.3-9.3a1 1 0 0 1 1.31-.08l.1.08a1 1 0 0 1 0 1.42L13.4 12l9.3 9.3a1 1 0 0 1 .08 1.31l-.08.1a1 1 0 0 1-1.42 0L12 13.4l-9.3 9.3a1 1 0 0 1-1.31.08l-.1-.08a1 1 0 0 1 0-1.42L10.6 12 1.3 2.7a1 1 0 0 1-.08-1.31z"/></symbol><symbol id="icon-dashboard-outlined" viewBox="0 0 24 24"><path fill-rule="evenodd" d="M9 14a1 1 0 0 1 1 1v7a1 1 0 0 1-1 1H2a1 1 0 0 1-1-1v-7a1 1 0 0 1 1-1h7zm13 0a1 1 0 0 1 1 1v7a1 1 0 0 1-1 1h-7a1 1 0 0 1-1-1v-7a1 1 0 0 1 1-1h7zM8 16H3v5h5v-5zm13 0h-5v5h5v-5zM9 1a1 1 0 0 1 1 1v7a1 1 0 0 1-1 1H2a1 1 0 0 1-1-1V2a1 1 0 0 1 1-1h7zm13 0a1 1 0 0 1 1 1v7a1 1 0 0 1-1 1h-7a1 1 0 0 1-1-1V2a1 1 0 0 1 1-1h7zM8 3H3v5h5V3zm13 0h-5v5h5V3z"/></symbol><symbol id="icon-dashboard" viewBox="0 0 24 24"><path fill-rule="evenodd" d="M9 14a1 1 0 0 1 1 1v7a1 1 0 0 1-1 1H2a1 1 0 0 1-1-1v-7a1 1 0 0 1 1-1h7zm13 0a1 1 0 0 1 1 1v7a1 1 0 0 1-1 1h-7a1 1 0 0 1-1-1v-7a1 1 0 0 1 1-1h7zM9 1a1 1 0 0 1 1 1v7a1 1 0 0 1-1 1H2a1 1 0 0 1-1-1V2a1 1 0 0 1 1-1h7zm13 0a1 1 0 0 1 1 1v7a1 1 0 0 1-1 1h-7a1 1 0 0 1-1-1V2a1 1 0 0 1 1-1h7z"/></symbol><symbol id="icon-debit-card-outlined" viewBox="0 0 24 18"><path fill-rule="evenodd" d="M2 2.778C2 2.455 2.333 2 3 2h18c.667 0 1 .455 1 .778V5.5H2V2.778ZM2 8.5v6.722c0 .323.333.778 1 .778h18c.667 0 1-.455 1-.778V8.5H2ZM3 0C1.457 0 0 1.136 0 2.778v12.444C0 16.864 1.457 18 3 18h18c1.543 0 3-1.136 3-2.778V2.778C24 1.136 22.543 0 21 0H3Zm1 13a1 1 0 0 1 1-1h5a1 1 0 1 1 0 2H5a1 1 0 0 1-1-1Zm14-1a1 1 0 1 0 0 2h1a1 1 0 1 0 0-2h-1Z"/></symbol><symbol id="icon-debit-card" viewBox="0 0 24 24"><path fill-rule="evenodd" d="M0 5.778C0 4.136 1.457 3 3 3h18c1.543 0 3 1.136 3 2.778V8.5H0V5.778ZM0 11.5h24v6.722C24 19.864 22.543 21 21 21H3c-1.543 0-3-1.136-3-2.778V11.5ZM4 16a1 1 0 0 1 1-1h5a1 1 0 1 1 0 2H5a1 1 0 0 1-1-1Zm13 0a1 1 0 0 1 1-1h1a1 1 0 1 1 0 2h-1a1 1 0 0 1-1-1Z"/></symbol><symbol id="icon-delete-outlined" viewBox="0 0 24 24"><path fill-rule="evenodd" d="M19.27 8.27a1 1 0 0 1 1 .89v11.02a2.8 2.8 0 0 1-2.64 2.81l-.18.01H6.55a2.82 2.82 0 0 1-2.82-2.65V9.28a1 1 0 0 1 2-.12v11.02c0 .42.3.76.71.81l.1.01h10.91c.42 0 .77-.31.82-.72v-11a1 1 0 0 1 1-1zM12 11a1 1 0 0 1 1 .88v5.57a1 1 0 0 1-2 .12V12a1 1 0 0 1 1-1zm-3.64 0a1 1 0 0 1 1 .88v5.57a1 1 0 0 1-1.99.12V12a1 1 0 0 1 1-1zm7.28 0a1 1 0 0 1 .99.88v5.57a1 1 0 0 1-1.99.12V12a1 1 0 0 1 1-1zM8.36 6.64H2a1 1 0 0 1-.12-2h5.48V2a1 1 0 0 1 .89-1h7.39a1 1 0 0 1 1 1v2.64H22a1 1 0 0 1 .12 1.99H8.36zM14.64 3H9.36v1.64h5.28V3z"/></symbol><symbol id="icon-delete" viewBox="0 0 24 24"><path fill-rule="evenodd" d="M20.25 8.33v11.92A2.75 2.75 0 0 1 17.5 23h-11a2.75 2.75 0 0 1-2.75-2.75V8.33h16.5zM9.25 12H7.42v6.42h1.83V12zm3.67 0h-1.84v6.42h1.84V12zm3.66 0h-1.83v6.42h1.83V12zm-.91-11c.5 0 .91.41.91.92v2.75h5.5a.92.92 0 1 1 0 1.83H1.92a.92.92 0 0 1 0-1.83h5.5V1.92c0-.51.4-.92.91-.92zm-.92 1.83h-5.5v1.84h5.5V2.83z"/></symbol><symbol id="icon-document-outlined" viewBox="0 0 24 24"><path fill-rule="evenodd" d="M14.67 1a1.01 1.01 0 0 1 .36.07l.04.01a.9.9 0 0 1 .22.14l.08.07 5.34 5.34a1 1 0 0 1 .2.3l.02.04a.89.89 0 0 1 .06.2v.05-.01.04-.02l.01.1v14.23a1 1 0 0 1-.88.99H4a1 1 0 0 1-1-.88V2a1 1 0 0 1 .88-1h10.79zm-1 2H5v17.56h14V8.33h-4.33a1 1 0 0 1-1-.88V3zM7.56 15.22h8.88a1 1 0 0 1 .12 2h-9a1 1 0 0 1-.12-2h9zm8.88-4.44a1 1 0 0 1 .12 2h-9a1 1 0 0 1-.12-2h9zm-5.33-4.45a1 1 0 0 1 .12 2H7.56a1 1 0 0 1-.12-1.99h3.67zm9.89.92v.08-.08z"/></symbol><symbol id="icon-document" viewBox="0 0 24 24"><path fill-rule="evenodd" d="M13.8 1v6.3c0 .5.4.9.9.9H21v13.5c0 .5-.4.9-.9.9H3.9a.9.9 0 0 1-.9-.9V1.9c0-.5.4-.9.9-.9h9.9zm4.5 15.3H5.7v1.8h12.6v-1.8zm0-4.5H5.7v1.8h12.6v-1.8zm-7.2-4.5H5.7v1.8h5.4V7.3zm4.5-5.77 4.87 4.87H15.6V1.53z"/></symbol><symbol id="icon-dollar-sign" viewBox="0 0 24 24"><path fill-rule="evenodd" d="M13 1a1 1 0 1 0-2 0v1.048c-1.097.105-2.241.396-3.207.966C6.475 3.792 5.5 5.096 5.5 7c0 .91.211 1.7.614 2.376.4.67.956 1.172 1.568 1.561.971.619 2.18 1.006 3.318 1.325v6.713a17.04 17.04 0 0 1-4.672-.92 1 1 0 0 0-.656 1.89c1.719.597 3.513.945 5.328 1.033V23a1 1 0 1 0 2 0v-2.043c1.232-.1 2.427-.389 3.396-.991C17.7 19.157 18.5 17.838 18.5 16c0-.91-.211-1.7-.614-2.376-.4-.67-.956-1.172-1.568-1.561-.971-.619-2.18-1.006-3.318-1.325V4.063c1.065.12 2.108.405 3.088.848a1 1 0 1 0 .824-1.822A12.29 12.29 0 0 0 13 2.053V1Zm-2 3.06c-.812.097-1.584.318-2.19.676C8.01 5.208 7.5 5.904 7.5 7c0 .59.133 1.018.331 1.35.202.34.506.634.925.9.603.384 1.366.665 2.244.929v-6.12Zm2 8.761v6.128c.96-.095 1.76-.32 2.341-.682.702-.436 1.159-1.105 1.159-2.267 0-.59-.133-1.018-.331-1.35-.202-.34-.506-.633-.925-.9-.603-.384-1.366-.665-2.244-.929Z"/></symbol><symbol id="icon-download-outlined" viewBox="0 0 24 24"><path fill-rule="evenodd" d="M11.55 3.9a7.81 7.81 0 0 1 7.69 6.45 4.63 4.63 0 0 1-.88 9.2h-1.81a1 1 0 1 1 0-2h1.81a2.64 2.64 0 1 0-.01-5.28 1 1 0 0 1-1-.93 5.81 5.81 0 0 0-11.6.1 1 1 0 0 1-.76.92 2.63 2.63 0 0 0 .65 5.19h1.81a1 1 0 0 1 0 2H5.64a4.64 4.64 0 0 1-1.83-8.9 7.81 7.81 0 0 1 7.74-6.74zm.52 14.73h.02a1 1 0 0 1-.06 0H12h.07zm-.07 0a1.02 1.02 0 0 1-.6-.2l-.02-.01-.09-.08-2.72-2.73a1 1 0 0 1 1.32-1.5l.09.09L11 15.22v-4.86a1 1 0 0 1 .88-1H12a1 1 0 0 1 1 .89v4.97l1.02-1.02a1 1 0 0 1 1.32-.08l.1.08a1 1 0 0 1 .08 1.32l-.09.1-2.72 2.72a1 1 0 0 1-.56.28l-.07.01h-.01.01H12zm-.63-.22.01.01-.01-.01zm-.03-.03.03.03-.02-.02h-.01z"/></symbol><symbol id="icon-download" viewBox="0 0 24 24"><path fill-rule="evenodd" d="M19.22 10.49a7.77 7.77 0 0 0-15.4.3 4.57 4.57 0 0 0 1.76 8.8h12.84a4.59 4.59 0 0 0 .8-9.1zM12 16.83l-4.58-4.58h3.66V8.58h1.84v3.67h3.66L12 16.83z"/></symbol><symbol id="icon-drag-and-drop" viewBox="0 0 24 24"><path d="M11 18c0 1.1-.9 2-2 2s-2-.9-2-2 .9-2 2-2 2 .9 2 2Zm-2-8c-1.1 0-2 .9-2 2s.9 2 2 2 2-.9 2-2-.9-2-2-2Zm0-6c-1.1 0-2 .9-2 2s.9 2 2 2 2-.9 2-2-.9-2-2-2Zm6 4c1.1 0 2-.9 2-2s-.9-2-2-2-2 .9-2 2 .9 2 2 2Zm0 2c-1.1 0-2 .9-2 2s.9 2 2 2 2-.9 2-2-.9-2-2-2Zm0 6c-1.1 0-2 .9-2 2s.9 2 2 2 2-.9 2-2-.9-2-2-2Z"/></symbol><symbol id="icon-edit-outlined" viewBox="0 0 24 24"><path fill-rule="evenodd" d="m19.95 1.88 2.17 2.17a3 3 0 0 1 0 4.24L8.71 21.71a1 1 0 0 1-.55.28l-6 1a1 1 0 0 1-1.15-1.15l1-6a1 1 0 0 1 .28-.55L15.71 1.88a3 3 0 0 1 4.24 0zm-5.62 4.2-10.4 10.4-.71 4.3 4.3-.71 10.4-10.4-3.6-3.58zm2.8-2.79-1.39 1.38 3.59 3.59 1.38-1.38a1 1 0 0 0 0-1.41l-2.18-2.18a1 1 0 0 0-1.4 0z"/></symbol><symbol id="icon-edit" viewBox="0 0 24 24"><path fill-rule="evenodd" d="m1.91 17.33 4.76 4.76-4.47.89A1 1 0 0 1 1 21.93l.02-.13.9-4.47zM13.6 5l5.4 5.41L8.41 21 3 15.59 13.59 5zm3.7-3.7a1 1 0 0 1 1.42 0l4 4a1 1 0 0 1 0 1.4L20.4 9 15 3.59z"/></symbol><symbol id="icon-elp" viewBox="0 0 24 24"><path fill-rule="evenodd" d="M10.83 18.91c.1 0 .19.01.28.04l9.11 2.15c-.14.07-9.4 3-9.4 3h-.01l-1.1-3.7a1.17 1.17 0 0 1 1.12-1.49zm-6.37-5c.53 0 .98.35 1.12.84l2.68 8.99c-.13-.09-7.29-6.65-7.29-6.65l2.63-2.81c.21-.24.52-.38.86-.38zM23.9 9.55c0 .12-2.1 9.5-2.1 9.5v.02l-3.72-.88a1.17 1.17 0 0 1-.59-1.91zM2.12 5l3.77.9c.49.14.85.6.85 1.14 0 .3-.13.58-.32.8H6.4c0 .02 0 .02-.02.03L0 14.7c0-.17 2.1-9.66 2.1-9.66L2.13 5zM15.68.4c.13.08 7.28 6.63 7.28 6.63l.07.08-2.65 2.78-.1.08c-.2.17-.46.28-.74.28-.52 0-.97-.35-1.12-.82zM13.12.02l1.12 3.66a1.16 1.16 0 0 1-1.38 1.5L3.75 2.99C3.88 2.93 13.1.02 13.1.02h.02z"/></symbol><symbol id="icon-email-outlined" viewBox="0 0 24 24"><path fill-rule="evenodd" d="M21 3a2 2 0 0 1 2 2v14a2 2 0 0 1-2 2H3a2 2 0 0 1-2-2V5c0-1.1.9-2 2-2h18zm0 7.13-8.53 4.55a1 1 0 0 1-.94 0L3 10.13V19h18v-8.87zM21 5H3v2.87l9 4.8 9-4.8V5z"/></symbol><symbol id="icon-email" viewBox="0 0 24 24"><path fill-rule="evenodd" d="M23 9.32v9.26a2.75 2.75 0 0 1-2.75 2.75H3.75A2.75 2.75 0 0 1 1 18.58V9.33l9.72 5.22c.37.26.82.39 1.28.37.46.02.9-.11 1.28-.37L23 9.32zM20.25 3A2.75 2.75 0 0 1 23 5.75v.92c0 .33-.17.65-.46.82L12.46 13c-.14.08-.3.1-.46.1a.82.82 0 0 1-.46-.1L1.46 7.5A.96.96 0 0 1 1 6.67v-.92A2.75 2.75 0 0 1 3.75 3z"/></symbol><symbol id="icon-entreleadership" viewBox="0 0 24 24"><path fill-rule="evenodd" d="M16.9 2.257v-2a.278.278 0 0 0-.221-.251.28.28 0 0 0-.119 0l-16.06 3v20.51l16.12-3c.22-.06.37.27.08.38l-7.93 2.76a.17.17 0 0 0 .08.33l14.71-2.72V1.007l-6.66 1.25zm0 5-6.54 1.2v1.35l5.08-.94v3.14l-5.08.93v1.41l6.54-1.22v3.16l-9.7 1.72V5.937l9.66-1.77.04 3.09z"/></symbol><symbol id="icon-error-outlined" viewBox="0 0 24 24"><path fill-rule="evenodd" d="m12.89 1.54 10 19.09a1 1 0 0 1-.89 1.46H2a1 1 0 0 1-.89-1.46l10-19.1a1 1 0 0 1 1.78 0zM12 4.16 3.65 20.09h16.7L12 4.16zm0 12.25c.71 0 1.22.41 1.22 1.11 0 .7-.5 1.12-1.22 1.12-.73 0-1.23-.41-1.23-1.12 0-.7.5-1.11 1.23-1.11zm1.1-6.88-.2 6.21h-1.81l-.18-6.21h2.18z"/></symbol><symbol id="icon-error" viewBox="0 0 24 24"><path fill-rule="evenodd" d="M12 2.03c.32 0 .62.16.8.43l10.08 17.42a.92.92 0 0 1-.8 1.37H1.92a.92.92 0 0 1-.8-1.38L11.21 2.46a.95.95 0 0 1 .79-.43zm0 14.38c-.73 0-1.23.41-1.23 1.11 0 .7.5 1.12 1.23 1.12.71 0 1.22-.41 1.22-1.12 0-.7-.5-1.11-1.22-1.11zm1.1-6.88h-2.2l.19 6.21h1.8l.2-6.21z"/></symbol><symbol id="icon-everydollar" viewBox="0 0 24 24"><path d="m23.32 7.68-.1.24c-3.48.51-8.28 4.15-13.14 11.6l-.15.23-6.45-2.52-.84-1.87 7.3 2.75s6.7-9.85 13.38-10.43zm.33-.67-.06.2c-7.52.27-13.68 9.05-13.8 9.23L1.85 13.7l-1-2.25 8.85 2.97s6.02-7.37 13.95-7.4zM14.6 4.13l9.28 2.4C15.05 6 9.7 12.44 9.5 12.7L0 9.87c6.18-6.18 14.44-5.74 14.6-5.73zm-3.25 1.54c-1.5 0-2.7.35-2.7.78 0 .44 1.22.8 2.7.8 1.5 0 2.7-.35 2.7-.8 0-.43-1.22-.78-2.7-.78z"/></symbol><symbol id="icon-facebook" viewBox="0 0 24 24"><path fill-rule="evenodd" d="M9.03 23 9 13H5V9h4V6.5C9 2.79 11.3 1 14.6 1c1.6 0 2.96.12 3.36.17v3.88h-2.3c-1.8 0-2.15.86-2.15 2.11V9h5.24l-2 4h-3.24v10H9.03z"/></symbol><symbol id="icon-filter" viewBox="0 0 24 24"><path fill-rule="evenodd" d="M22.9 2.49a.92.92 0 0 0-.82-.49H1.92a.92.92 0 0 0-.82.49.9.9 0 0 0 .06.94L9.25 15v6.08c0 .5.41.91.92.91h3.66c.5 0 .92-.4.92-.9V15l8.09-11.58a.9.9 0 0 0 .06-.94z"/></symbol><symbol id="icon-filter-outlined" viewBox="0 0 24 24"><path fill-rule="evenodd" d="M22.909 2.488v.002a.9.9 0 0 1 .098.468v.003a.9.9 0 0 1-.162.459L14.755 15v6.09c0 .5-.42.9-.92.9h-3.66c-.51 0-.92-.41-.92-.91V15L1.165 3.43a.9.9 0 0 1-.06-.94.92.92 0 0 1 .82-.49h20.16a.92.92 0 0 1 .814.48l.001.002.005.008v-.01a.28.28 0 0 1 .004.008ZM19.999 4l-7.244 10.37v5.62h-1.5v-5.62L4.004 4H20Z"/></symbol><symbol id="icon-financial-peace" viewBox="0 0 24 24"><path d="m11.36 12-8.58 8.58H.7a.7.7 0 0 1-.52-1.17l.03-.03L7.59 12h3.77zM24 12l-7.46 7.54a3.51 3.51 0 0 1-2.42 1.04H5.36L13.95 12H24zM2.78 2.01l8.58 8.27H7.59L.26 3.22a.7.7 0 0 1 .45-1.2h2.07zM14.08 2c.89 0 1.74.34 2.4.94l.05.06L24 10.26H13.95L5.36 2h8.72z"/></symbol><symbol id="icon-folder-outlined" viewBox="0 0 24 24"><path fill-rule="evenodd" d="M22 7.36a1 1 0 0 1 1 1v11.82A2.82 2.82 0 0 1 20.18 23H3.82A2.82 2.82 0 0 1 1 20.18V8.36a1 1 0 0 1 1-1h20zm-1 2H3v10.82c0 .45.37.82.82.82h16.36c.45 0 .82-.37.82-.82V9.36zM11.1 1a1 1 0 0 1 .82.45l1.52 2.28h6.74a1 1 0 0 1 0 2h-7.27a1 1 0 0 1-.83-.45L10.56 3H4.82v1.73a1 1 0 1 1-2 0V2a1 1 0 0 1 1-1z"/></symbol><symbol id="icon-folder" viewBox="0 0 24 24"><path fill-rule="evenodd" d="M23 8.33v11a2.75 2.75 0 0 1-2.75 2.75H3.75A2.75 2.75 0 0 1 1 19.33v-11h22zM11.08 1l1.84 2.75h6.41c.51 0 .92.41.92.92V6.5H3.75V1.92c0-.51.41-.92.92-.92h6.41z"/></symbol><symbol id="icon-gift-outlined" viewBox="0 0 24 24"><path fill-rule="evenodd" d="M7.15.9c1.95 0 3.48 1.05 4.6 2.72l.25.4.25-.4C13.37 1.95 14.9.91 16.82.91a3.36 3.36 0 0 1 3.45 3.3c-.01.45-.11.86-.28 1.24H22a1 1 0 0 1 1 1v3.64a1 1 0 0 1-1 1h-9v9.82h5.36c.42 0 .76-.31.82-.72v-7.37a1 1 0 0 1 2-.12v7.39a2.8 2.8 0 0 1-2.64 2.81H5.64a2.82 2.82 0 0 1-2.82-2.64v-7.44a1 1 0 0 1 2-.12v7.39c0 .42.31.76.71.81H11v-9.8H2a1 1 0 0 1-1-1V6.44a1 1 0 0 1 1-1h2.01c-.17-.38-.27-.8-.28-1.24v-.06A3.34 3.34 0 0 1 7.15.9zm1.47 6.55H3V9.1h8V7.45H8.62zm4.38 0V9.1h8V7.45h-8zm3.85-4.54c-1.19 0-2.15.66-2.94 1.83-.15.23-.3.47-.42.71h3.53c.68-.04 1.23-.6 1.25-1.24a1.36 1.36 0 0 0-1.42-1.3zm-9.73 0a1.35 1.35 0 0 0-1.4 1.27c.05.73.67 1.3 1.43 1.27h3.36a7.3 7.3 0 0 0-.42-.71C9.3 3.57 8.34 2.91 7.12 2.91z"/></symbol><symbol id="icon-gift" viewBox="0 0 24 24"><path fill-rule="evenodd" d="M21.17 11.92v8.25a2.75 2.75 0 0 1-2.59 2.74h-4.75v-11h7.34zm-11 0v11H5.58a2.75 2.75 0 0 1-2.75-2.75v-8.25h7.34zM7.04.92h.1A5.67 5.67 0 0 1 12 4.14 5.7 5.7 0 0 1 16.89.92a3.3 3.3 0 0 1 3.36 3.17c-.01.41-.1.81-.26 1.19l-.1.22h2.2a.9.9 0 0 1 .9.81l.01.1v2.76a.9.9 0 0 1-.81.9l-.1.01H1.91a.92.92 0 0 1-.91-.8V6.42c0-.47.35-.86.81-.91l.1-.01H4.1a3.26 3.26 0 0 1-.33-1.11l-.02-.23v-.07A3.3 3.3 0 0 1 6.85.92h.3zm9.88 1.83c-1.79 0-2.9 1.47-3.5 2.61l-.07.14h3.62c.78 0 1.42-.63 1.45-1.4a1.47 1.47 0 0 0-1.5-1.35zm-9.86 0c-.78 0-1.43.6-1.48 1.38.06.73.64 1.3 1.36 1.36l.13.01h3.58c-.58-1.16-1.7-2.74-3.59-2.75z"/></symbol><symbol id="icon-google-play" viewBox="0 0 24 24"><g clip-path="url(#a)"><path fill-rule="evenodd" clip-rule="evenodd" d="m1.568 23.664 10.53-10.5 3.71 3.7-12.514 6.944a1.552 1.552 0 0 1-1.53-.01l-.196-.134ZM11.044 12.1 1 22.114V2.098L11.044 12.1Zm6.273-4.134 4.908 2.718c.486.269.785.775.785 1.312 0 .538-.3 1.044-.785 1.313l-5.043 2.79-4.02-4 4.144-4.133h.01ZM1.465.434A1.552 1.552 0 0 1 3.294.196l12.659 7.017-3.845 3.834L1.465.434Z"/></g><defs><clipPath id="a"><path d="M0 0h24v24H0z"/></clipPath></defs></symbol><symbol id="icon-group-outlined" viewBox="0 0 24 24"><path fill-rule="evenodd" d="M12 8.455A3.727 3.727 0 1 1 12 1a3.727 3.727 0 0 1 0 7.455Zm0-2A1.727 1.727 0 1 0 12 3a1.727 1.727 0 0 0 0 3.455ZM1.91 5.636a2.818 2.818 0 1 0 5.634.001 2.818 2.818 0 0 0-5.635 0Zm3.635 0a.818.818 0 1 1-1.635.001.818.818 0 0 1 1.635 0Zm-1.727 9.91a1 1 0 0 1 1 1v2.636h1.727a1 1 0 1 1 0 2H3.818a1 1 0 0 1-1-1v-2.636H2a1 1 0 0 1-1-1V12a2.818 2.818 0 0 1 2.818-2.818h.91a1 1 0 1 1 0 2h-.91A.818.818 0 0 0 3 12v3.546h.818Zm15.455-7.091a2.818 2.818 0 1 0 0-5.636 2.818 2.818 0 0 0 0 5.636Zm0-2a.818.818 0 1 1-.001-1.636.818.818 0 0 1 0 1.636ZM23 16.545a1 1 0 0 1-1 1h-.818v2.637a1 1 0 0 1-1 1h-2.727a1 1 0 0 1 0-2h1.727v-2.636a1 1 0 0 1 1-1H21V12a.818.818 0 0 0-.818-.818h-.91a1 1 0 1 1 0-2h.91A2.818 2.818 0 0 1 23 12v4.546ZM14.727 23a1 1 0 0 0 1-1v-3.546h.819a1 1 0 0 0 1-1V12a2.818 2.818 0 0 0-2.819-2.818H9.273A2.818 2.818 0 0 0 6.455 12v4.546a1 1 0 0 0 1 1h.818V22a1 1 0 0 0 1 1h5.454Zm0-6.546a1 1 0 0 0-1 1V21h-3.454v-4.454a1 1 0 0 0-1-1h-.818V12c0-.452.365-.818.818-.818h5.454c.453 0 .819.366.819.818v4.454h-.819Z"/></symbol><symbol id="icon-group" viewBox="0 0 24 24"><path fill-rule="evenodd" d="M14.75 8.33a2.75 2.75 0 0 1 2.75 2.75v5.5h-2.75v5.5c0 .5-.41.92-.92.92h-3.66a.92.92 0 0 1-.92-.92v-5.5H6.5v-5.5a2.75 2.75 0 0 1 2.75-2.75h5.5zm-9.14 0c-.54.7-.88 1.56-.94 2.5v7.59H6.5v1.83c0 .47-.35.86-.81.91H3.75a.92.92 0 0 1-.91-.8v-4.69H1v-5.5c0-.97.74-1.75 1.68-1.83h2.93zm15.56 0c1.01 0 1.83.82 1.83 1.84v5.5h-1.83v4.58c0 .5-.41.92-.92.92h-1.83a.92.92 0 0 1-.92-.92v-1.83h1.83v-7.34c0-1.03-.36-1.98-.94-2.75h2.78zM4.67 3.75c.96 0 1.75.74 1.82 1.68l.01.15c0 .97-.74 1.75-1.68 1.83h-.15c-.97 0-1.75-.73-1.83-1.68v-.15c0-.96.73-1.75 1.68-1.82l.15-.01zm14.66 0h.15c.95.08 1.69.87 1.69 1.83v.15a1.83 1.83 0 0 1-1.84 1.69h-.15a1.83 1.83 0 0 1-1.68-1.84v-.15c.08-.94.87-1.68 1.83-1.68zM12 1a2.75 2.75 0 0 1 2.74 2.58l.01.17a2.75 2.75 0 0 1-2.58 2.74L12 6.5a2.75 2.75 0 0 1-2.74-2.58l-.01-.17a2.75 2.75 0 0 1 2.58-2.74L12 1z"/></symbol><symbol id="icon-heart-outlined" viewBox="0 0 24 24"><path fill-rule="evenodd" d="M2.052 3.05A7 7 0 0 1 12 3.1l.05-.05a7 7 0 0 1 9.9 9.9l-9.244 9.242a1 1 0 0 1-1.414 0l-9.241-9.243a7 7 0 0 1 0-9.9zm8.485 1.414a5 5 0 0 0-7.07 7.07v.001L12 20.071l8.536-8.536a5 5 0 1 0-7.702-6.298 1 1 0 0 1-1.666 0 5.01 5.01 0 0 0-.631-.773z"/></symbol><symbol id="icon-heart" viewBox="0 0 24 24"><path d="M17.15 1A6.768 6.768 0 0 0 12 3.358 6.768 6.768 0 0 0 6.849 1a6.833 6.833 0 0 0-4.966 11.544l9.33 9.697a1.092 1.092 0 0 0 1.573 0l9.33-9.697.008-.008A6.833 6.833 0 0 0 17.151 1Z" fill-rule="evenodd"/></symbol><symbol id="icon-help-outlined" viewBox="0 0 24 24"><path fill-rule="evenodd" d="M12 1a11 11 0 1 1 0 22 11 11 0 0 1 0-22zm0 2a9 9 0 1 0 0 18 9 9 0 0 0 0-18zm-.06 12.26c.95 0 1.6.55 1.6 1.47 0 .91-.65 1.46-1.6 1.46-.95 0-1.6-.55-1.6-1.46 0-.92.65-1.47 1.6-1.47zm.5-9.16c2.19 0 3.65 1.38 3.65 3 0 1.42-.58 2.05-1.24 2.66-.6.53-1.3.92-1.55 1.2-.15.2-.19.33-.19.64l-.01.8h-2.32l-.01-1.1c-.02-1.06.35-1.59 1.07-2.1l1.03-.75c.38-.27.75-.58.75-1.05 0-.72-.61-1.1-1.63-1.1-1.04 0-1.87.5-2.4 1.01l-.78-1.9c.36-.4 1.45-1.31 3.64-1.31z"/></symbol><symbol id="icon-help" viewBox="0 0 24 24"><path fill-rule="evenodd" d="M12 1a11 11 0 1 1 0 22 11 11 0 0 1 0-22zm-.06 14.26c-.95 0-1.6.55-1.6 1.47 0 .91.65 1.46 1.6 1.46.95 0 1.6-.55 1.6-1.46 0-.92-.65-1.47-1.6-1.47zm.5-9.16c-2.18 0-3.27.92-3.63 1.3l.78 1.91A3.49 3.49 0 0 1 12 8.3c1.02 0 1.63.4 1.63 1.1 0 .48-.37.79-.75 1.06l-1.03.75c-.72.51-1.1 1.04-1.07 2.1l.01 1.1h2.32l.01-.8c0-.3.04-.45.19-.63.25-.3.95-.68 1.55-1.2.66-.62 1.24-1.25 1.24-2.66 0-1.63-1.46-3.01-3.64-3.01z"/></symbol><symbol id="icon-hide-outlined" viewBox="0 0 24 24"><path fill-rule="evenodd" d="M20.3 2.3a1 1 0 0 1 1.4 1.4l-2.97 2.98a20.17 20.17 0 0 1 4.13 4.83 1 1 0 0 1 0 .99 20.17 20.17 0 0 1-2.91 3.71C17.6 18.56 14.94 20 12 20a9.7 9.7 0 0 1-5.08-1.5L3.7 21.7a1 1 0 1 1-1.42-1.4l2.98-2.98a20.17 20.17 0 0 1-4.13-4.83 1 1 0 0 1 0-.99 20.17 20.17 0 0 1 2.91-3.7C6.4 5.44 9.06 4 12 4c1.8 0 3.5.54 5.08 1.5zm-3 5.8-1.86 1.87a4 4 0 0 1-5.48 5.48l-1.59 1.58A7.6 7.6 0 0 0 12 18c2.32 0 4.53-1.19 6.54-3.2a18.19 18.19 0 0 0 2.28-2.8 17.05 17.05 0 0 0-2.28-2.8c-.4-.4-.81-.77-1.23-1.1zM12 6C9.68 6 7.47 7.19 5.46 9.2A18.19 18.19 0 0 0 3.18 12a17.05 17.05 0 0 0 2.28 2.8c.4.4.81.77 1.23 1.1l1.86-1.87a4 4 0 0 1 5.48-5.48l1.59-1.58A7.6 7.6 0 0 0 12 6zm1.93 5.48-2.45 2.45a2 2 0 0 0 2.45-2.45zM12 10a2 2 0 0 0-1.93 2.52l2.45-2.45A2 2 0 0 0 12 10z"/></symbol><symbol id="icon-hide" viewBox="0 0 24 24"><path fill-rule="evenodd" d="M20.52 2.27a.92.92 0 0 1 1.3 1.3L4.4 20.97a.92.92 0 1 1-1.3-1.3l2.5-2.49a18.27 18.27 0 0 1-4.46-4.62.92.92 0 0 1 0-.98c.18-.27 4.38-6.84 10.86-6.84 1.68.02 3.32.44 4.8 1.24zm-.67 5.85a18.2 18.2 0 0 1 3.01 3.47c.19.3.19.68 0 .98-.18.28-4.38 6.85-10.86 6.85-1-.01-2-.17-2.97-.48zm-7.85.3a3.67 3.67 0 0 0-3.67 3.66c0 .65.19 1.3.53 1.85l4.98-4.99A3.56 3.56 0 0 0 12 8.42z"/></symbol><symbol id="icon-information-outlined" viewBox="0 0 24 24"><path fill-rule="evenodd" d="M12 1a11 11 0 1 1 0 22 11 11 0 0 1 0-22zm0 2a9 9 0 1 0 0 18 9 9 0 0 0 0-18zm1.36 6.62V18h-2.72V9.62h2.72zM12 5.82c.92 0 1.55.59 1.55 1.42 0 .85-.63 1.41-1.55 1.41s-1.55-.56-1.55-1.41c0-.83.63-1.41 1.55-1.41z"/></symbol><symbol id="icon-information" viewBox="0 0 24 24"><path fill-rule="evenodd" d="M12 1a11 11 0 1 1 0 22 11 11 0 0 1 0-22zm1.36 8.62h-2.72V18h2.72V9.62zM12 5.82c-.92 0-1.55.59-1.55 1.42 0 .85.63 1.41 1.55 1.41s1.55-.56 1.55-1.41c0-.83-.63-1.41-1.55-1.41z"/></symbol><symbol id="icon-instagram" viewBox="0 0 24 24"><path fill-rule="evenodd" d="M13.16 0c2.22 0 2.68.02 3.79.07 1.95.1 3.66.57 5.04 1.94 1.37 1.38 1.85 3.1 1.94 5.04.05 1.15.07 1.6.07 4.05v1.8c0 2.45-.02 2.9-.07 4.05-.1 1.95-.57 3.66-1.94 5.04-1.38 1.37-3.1 1.85-5.04 1.94-1.15.05-1.6.07-4.05.07h-1.8c-2.45 0-2.9-.02-4.05-.07-1.95-.1-3.66-.57-5.04-1.94C.64 20.6.16 18.89.07 16.95A64.7 64.7 0 0 1 0 13.16v-2.32c0-2.22.02-2.68.07-3.79.1-1.95.57-3.66 1.94-5.04C3.4.64 5.11.16 7.05.07A64.7 64.7 0 0 1 10.84 0zm-.56 2.16h-1.2c-2.66 0-3.07.02-4.25.07-1.37.06-2.63.34-3.6 1.31-.98.98-1.26 2.25-1.32 3.61a73.01 73.01 0 0 0-.07 4.25v1.2c0 2.66.02 3.07.07 4.25.06 1.36.34 2.63 1.31 3.6.98.98 2.25 1.26 3.61 1.32 1.1.05 1.53.06 3.71.07h2.28c2.18 0 2.61-.02 3.7-.07 1.38-.06 2.64-.34 3.62-1.31.97-.98 1.25-2.25 1.3-3.61.06-1.1.07-1.53.08-3.71v-2.28c0-2.18-.02-2.61-.07-3.7-.06-1.38-.34-2.64-1.31-3.62-.98-.97-2.25-1.25-3.61-1.3a73.01 73.01 0 0 0-4.25-.08zM12 5.84a6.16 6.16 0 1 1 0 12.32 6.16 6.16 0 0 1 0-12.32zM12 8a4 4 0 1 0 0 8 4 4 0 0 0 0-8zm6.4-3.85a1.44 1.44 0 1 1 0 2.88 1.44 1.44 0 0 1 0-2.88z"/></symbol><symbol id="icon-link" viewBox="0 0 24 24"><path fill-rule="evenodd" d="M12.7 9.9a1 1 0 0 1 1.4 0 5.95 5.95 0 0 1 0 8.5l-2.8 2.8a5.95 5.95 0 0 1-8.5 0 5.95 5.95 0 0 1 0-8.52l2.5-2.4a1 1 0 1 1 1.4 1.44l-2.5 2.39a3.95 3.95 0 0 0 0 5.68 3.95 3.95 0 0 0 5.7 0l2.8-2.8a3.95 3.95 0 0 0 0-5.68 1 1 0 0 1 0-1.42zm0-7.1a5.95 5.95 0 0 1 8.5 0 5.95 5.95 0 0 1 0 8.52l-2.5 2.4a1 1 0 1 1-1.4-1.44l2.5-2.39a3.95 3.95 0 0 0 0-5.68 3.95 3.95 0 0 0-5.7 0L11.3 7a3.95 3.95 0 0 0 0 5.68 1 1 0 0 1-1.4 1.42 5.95 5.95 0 0 1 0-8.52z"/></symbol><symbol id="icon-link-external" viewBox="0 0 24 24"><path fill-rule="evenodd" d="M9.27 4.64a1 1 0 1 1 0 2H3V21h14.36v-6.27a1 1 0 1 1 2 0V22a1 1 0 0 1-1 1H2a1 1 0 0 1-1-1V5.64a1 1 0 0 1 1-1zM22.02 1a1 1 0 0 1 .35.07l.05.02a1.02 1.02 0 0 1 .18.1l.05.05-.03-.03a1 1 0 0 1 .23.27l.03.04.03.06.02.05a.99.99 0 0 1 .06.22v.12L23 2v7.27a1 1 0 0 1-2 .12V4.4l-8.3 8.3a1 1 0 0 1-1.31.08l-.1-.08a1 1 0 0 1-.08-1.32l.08-.1L19.6 3h-4.86a1 1 0 0 1-1-.88V2a1 1 0 0 1 1-1h7.29z"/></symbol><symbol id="icon-linkedin" viewBox="0 0 24 24"><path d="M23 0H1C.4 0 0 .4 0 1v22c0 .6.4 1 1 1h22c.6 0 1-.4 1-1V1c0-.6-.4-1-1-1zM7.1 20.5H3.6V9h3.6v11.5h-.1zM5.3 7.4c-1.1 0-2.1-.9-2.1-2.1 0-1.1.9-2.1 2.1-2.1 1.1 0 2.1.9 2.1 2.1 0 1.2-.9 2.1-2.1 2.1zm15.2 13.1h-3.6v-5.6c0-1.3 0-3-1.8-3-1.9 0-2.1 1.4-2.1 2.9v5.7H9.4V9h3.4v1.6c.5-.9 1.6-1.8 3.4-1.8 3.6 0 4.3 2.4 4.3 5.5v6.2z"/></symbol><symbol id="icon-list-content-outlined" viewBox="0 0 24 24"><path fill-rule="evenodd" d="M9 14a1 1 0 0 1 1 1v7a1 1 0 0 1-1 1H2a1 1 0 0 1-1-1v-7a1 1 0 0 1 1-1h7zm13 6a1 1 0 0 1 0 2h-8a1 1 0 0 1 0-2zM8 16H3v5h5v-5zm6-1h8a1 1 0 0 1 .12 2H14a1 1 0 0 1-.12-2H22zM9 1a1 1 0 0 1 1 1v7a1 1 0 0 1-1 1H2a1 1 0 0 1-1-1V2a1 1 0 0 1 1-1h7zm13 6a1 1 0 0 1 .12 2H14a1 1 0 0 1-.12-2H22zM8 3H3v5h5V3zm14-1a1 1 0 0 1 .12 2H14a1 1 0 0 1-.12-2H22z"/></symbol><symbol id="icon-list-content" viewBox="0 0 24 24"><path fill-rule="evenodd" d="M9 14a1 1 0 0 1 1 1v7a1 1 0 0 1-1 1H2a1 1 0 0 1-1-1v-7a1 1 0 0 1 1-1h7zm13 6a1 1 0 0 1 0 2h-8a1 1 0 0 1 0-2zm-8-5h8a1 1 0 0 1 .12 2H14a1 1 0 0 1-.12-2H22zM9 1a1 1 0 0 1 1 1v7a1 1 0 0 1-1 1H2a1 1 0 0 1-1-1V2a1 1 0 0 1 1-1h7zm13 6a1 1 0 0 1 .12 2H14a1 1 0 0 1-.12-2H22zm0-5a1 1 0 0 1 .12 2H14a1 1 0 0 1-.12-2H22z"/></symbol><symbol id="icon-list" viewBox="0 0 24 24"><path fill-rule="evenodd" d="M2.83 17.67a1.83 1.83 0 1 1 0 3.66 1.83 1.83 0 0 1 0-3.66zm19.25.91a.92.92 0 1 1 0 1.84H8.33a.92.92 0 1 1 0-1.84h13.75zM2.83 10.33a1.83 1.83 0 1 1 0 3.67 1.83 1.83 0 0 1 0-3.67zm19.25.92a.92.92 0 0 1 0 1.83H8.33a.92.92 0 0 1 0-1.83h13.75zM2.83 3a1.83 1.83 0 1 1 0 3.67 1.83 1.83 0 0 1 0-3.67zm19.25.92a.92.92 0 0 1 0 1.83H8.33a.92.92 0 0 1 0-1.83h13.75z"/></symbol><symbol id="icon-location-outlined" viewBox="0 0 24 24"><path fill-rule="evenodd" d="M11.73 1a8.55 8.55 0 0 1 8.72 8.62c0 1.43-.58 3.09-1.63 4.95a31.54 31.54 0 0 1-2.44 3.6 51.32 51.32 0 0 1-3.95 4.54 1 1 0 0 1-1.4 0 25.63 25.63 0 0 1-1.25-1.32 51.32 51.32 0 0 1-2.7-3.22 31.54 31.54 0 0 1-2.44-3.6C3.58 12.7 3 11.05 3 9.62 3 4.56 7 1 11.73 1zm0 2A6.55 6.55 0 0 0 5 9.62c0 1.02.48 2.38 1.38 3.96a29.6 29.6 0 0 0 2.28 3.37 49.35 49.35 0 0 0 3.07 3.6 50.34 50.34 0 0 0 3.07-3.6 29.6 29.6 0 0 0 2.28-3.37c.9-1.58 1.37-2.94 1.37-3.96 0-3.9-3.06-6.62-6.72-6.62zm0 2.76c2.15 0 3.9 1.73 3.9 3.86a3.88 3.88 0 0 1-3.9 3.86 3.88 3.88 0 0 1-3.9-3.86 3.88 3.88 0 0 1 3.9-3.86zm0 2c-1.05 0-1.9.84-1.9 1.86s.85 1.86 1.9 1.86c1.05 0 1.9-.84 1.9-1.86s-.85-1.86-1.9-1.86z"/></symbol><symbol id="icon-location" viewBox="0 0 24 24"><path fill-rule="evenodd" d="M12.2 1C7.96 1 3.5 4.25 3.5 9.6c0 5.08 7.74 12.83 8.03 13.11.2.2.39.29.68.29a.9.9 0 0 0 .68-.29c.29-.28 8.03-8.03 8.03-13.1C20.92 4.25 16.47 1 12.2 1zm0 11.48A2.83 2.83 0 0 1 9.3 9.6a2.83 2.83 0 0 1 2.9-2.87 2.84 2.84 0 0 1 2.91 2.87 2.83 2.83 0 0 1-2.9 2.87z"/></symbol><symbol id="icon-lock-outlined" viewBox="0 0 24 24"><path fill-rule="evenodd" d="M12.28 1a5.5 5.5 0 0 1 5.45 5.55v3.54h2.63a1 1 0 0 1 1 1V22a1 1 0 0 1-1 1H4a1 1 0 0 1-1-1V11.1a1 1 0 0 1 1-1l2.64-.01V6.44A5.5 5.5 0 0 1 11.96 1h.22zm7.08 11.1H5V21h14.36v-8.9zm-7.18 1.63a2.82 2.82 0 1 1 0 5.63 2.82 2.82 0 0 1 0-5.63zm0 2a.82.82 0 1 0 0 1.63.82.82 0 0 0 0-1.63zm0-12.73a3.5 3.5 0 0 0-3.54 3.45v3.64h7.09V6.54A3.5 3.5 0 0 0 12.46 3h-.19z"/></symbol><symbol id="icon-lock" viewBox="0 0 24 24"><path fill-rule="evenodd" d="M20.42 10.17h-2.75V6.5A5.46 5.46 0 0 0 12.26 1h-.08a5.45 5.45 0 0 0-5.51 5.4v3.77H3.92a.9.9 0 0 0-.92.91v11c0 .51.41.92.92.92h16.5c.5 0 .91-.41.91-.92v-11a.9.9 0 0 0-.91-.91zm-8.25 8.25a1.83 1.83 0 1 1 0-3.67 1.83 1.83 0 0 1 0 3.67zm3.66-8.25H8.5V6.42a3.63 3.63 0 0 1 3.63-3.59h.12c2 .03 3.6 1.67 3.58 3.67v3.67z"/></symbol><symbol id="icon-menu" viewBox="0 0 24 24"><path fill-rule="evenodd" d="M22 18a1 1 0 0 1 0 2H2a1 1 0 0 1 0-2h20zm0-7a1 1 0 0 1 0 2H2a1 1 0 0 1 0-2h20zm0-7a1 1 0 0 1 0 2H2a1 1 0 1 1 0-2h20z"/></symbol><symbol id="icon-minus" viewBox="0 0 24 24"><rect width="22" height="2" x="1" y="11" fill-rule="evenodd" rx="1"/></symbol><symbol id="icon-more" viewBox="0 0 24 24"><path fill-rule="evenodd" d="M12 9a2.75 2.75 0 1 1 0 5.5A2.75 2.75 0 0 1 12 9zM3.75 9a2.75 2.75 0 1 1 0 5.5 2.75 2.75 0 0 1 0-5.5zm16.5 0a2.75 2.75 0 1 1 0 5.5 2.75 2.75 0 0 1 0-5.5z"/></symbol><symbol id="icon-notifications-outlined" viewBox="0 0 24 24"><path fill-rule="evenodd" d="M14.51 20.67a2.67 2.67 0 0 1-5.02 0zM12 1a7.22 7.22 0 0 1 7.22 7.22v4.44a11.3 11.3 0 0 0 1.64 5.71A1 1 0 0 1 20 19.9H4a1 1 0 0 1-.86-1.52 11.29 11.29 0 0 0 1.64-5.7V8.22A7.22 7.22 0 0 1 12 1zm0 2a5.22 5.22 0 0 0-5.22 5.22v4.46a13.3 13.3 0 0 1-1.13 5.2h12.7a13.3 13.3 0 0 1-1.13-5.2V8.22A5.22 5.22 0 0 0 12 3z"/></symbol><symbol id="icon-notifications" viewBox="0 0 24 24"><path fill-rule="evenodd" d="M14.54 20.8a2.7 2.7 0 0 1-5.08 0zM12 1a7.2 7.2 0 0 1 7.2 7.2v3.6c.03 2.05.6 4.07 1.67 5.83A.9.9 0 0 1 20.1 19H3.9a.9.9 0 0 1-.77-1.37A11.57 11.57 0 0 0 4.8 11.8V8.2A7.2 7.2 0 0 1 12 1z"/></symbol><symbol id="icon-pause-outlined" viewBox="0 0 24 24"><path fill-rule="evenodd" d="M8 1a1 1 0 0 1 1 1v20a1 1 0 0 1-1 1H2a1 1 0 0 1-1-1V2a1 1 0 0 1 1-1h6zm14 0a1 1 0 0 1 1 1v20a1 1 0 0 1-1 1h-6a1 1 0 0 1-1-1V2a1 1 0 0 1 1-1h6zM7 3H3v18h4V3zm14 0h-4v18h4V3z"/></symbol><symbol id="icon-pause" viewBox="0 0 24 24"><path fill-rule="evenodd" d="M7 1a1 1 0 0 1 1 1v20a1 1 0 0 1-1 1H2a1 1 0 0 1-1-1V2a1 1 0 0 1 1-1zm15 0a1 1 0 0 1 1 1v20a1 1 0 0 1-1 1h-5a1 1 0 0 1-1-1V2a1 1 0 0 1 1-1z"/></symbol><symbol id="icon-percent-sign" viewBox="0 0 24 24"><path fill-rule="evenodd" d="M6.5 3a2.5 2.5 0 1 0 0 5 2.5 2.5 0 0 0 0-5ZM2 5.5a4.5 4.5 0 1 1 9 0 4.5 4.5 0 0 1-9 0Zm16.555-3.332a1 1 0 0 1 .277 1.387l-12 18a1 1 0 0 1-1.664-1.11l12-18a1 1 0 0 1 1.387-.277ZM15 18.5a2.5 2.5 0 1 1 5 0 2.5 2.5 0 0 1-5 0Zm2.5-4.5a4.5 4.5 0 1 0 0 9 4.5 4.5 0 0 0 0-9Z"/></symbol><symbol id="icon-phone-outlined" viewBox="0 0 24 24"><path fill-rule="evenodd" d="m9.54 10.94 1.2-1.22c.52-.53.67-1.32.38-2L9.14 3.11A1.83 1.83 0 0 0 7 2.06l-3.64.96c-.82.21-1.39.97-1.36 1.82.25 4.5 2.1 8.72 5.23 11.91 3.21 3.15 7.44 5 11.9 5.24.88.03 1.64-.54 1.85-1.36l.96-3.63a1.83 1.83 0 0 0-1.05-2.14l-4.61-1.98a1.82 1.82 0 0 0-2 .38l-1.22 1.2-3.52-3.52zm10.43 5.7-.89 3.35a16.5 16.5 0 0 1-10.44-4.65A16.44 16.44 0 0 1 4.01 4.92l3.35-.89L9.23 8.4l-1.81 1.84a1 1 0 0 0 0 1.41l4.92 4.92a1 1 0 0 0 1.41 0l1.85-1.8 4.37 1.86z"/></symbol><symbol id="icon-phone" viewBox="0 0 24 24"><path fill-rule="evenodd" d="m15.3 14.19-2.13 2.1-5.47-5.46 2.11-2.14a.92.92 0 0 0 .19-1L7.8 2.55a.92.92 0 0 0-1.08-.53L2.7 3.1c-.42.1-.7.49-.69.91a19.4 19.4 0 0 0 5.49 12.5A19.4 19.4 0 0 0 19.99 22c.43 0 .8-.28.91-.7l1.07-4.03a.92.92 0 0 0-.53-1.08L16.32 14a.92.92 0 0 0-1.01.2z"/></symbol><symbol id="icon-piggy-bank-outlined" viewBox="0 0 24 24"><path fill-rule="evenodd" d="M5.7 5.5a3.94 3.94 0 0 1 2.44.24c.7.32 1.3.86 1.75 1.62h6.2a6.9 6.9 0 0 1 .55 13.8V22a1 1 0 0 1-2 .12v-.94h-3.46V22a1 1 0 0 1-2 .12v-.96a6.9 6.9 0 0 1-5.54-3.61H2a1 1 0 0 1-1-1V12a1 1 0 0 1 1-1h1.65c.42-.78.98-1.47 1.65-2.03l-.62-2.14A1 1 0 0 1 5.3 5.6c.09-.03.22-.07.39-.1zm1.24 1.94.47 1.63a1 1 0 0 1-.4 1.12c-.8.53-1.43 1.3-1.81 2.2a1 1 0 0 1-.92.61H3v2.55h1.27a1 1 0 0 1 .93.61 4.9 4.9 0 0 0 4.53 3.02h6.36a4.9 4.9 0 1 0 0-9.82H9.27a1 1 0 0 1-.92-.6c-.27-.64-.62-1.01-1.03-1.2a2.4 2.4 0 0 0-.38-.12zM14.73 11a1 1 0 0 1 .11 2H11.1a1 1 0 0 1-.12-2h3.75zM12.9 1a2.82 2.82 0 1 1 0 5.64 2.82 2.82 0 0 1 0-5.64zm0 2a.82.82 0 1 0 0 1.64.82.82 0 0 0 0-1.64z"/></symbol><symbol id="icon-piggy-bank" viewBox="0 0 24 24"><path fill-rule="evenodd" d="M5.45 5.6c.81-.12 2.47.14 3.45 1.82h7.22a6.88 6.88 0 0 1 .46 13.72V23h-1.83v-1.83h-3.67V23H9.25v-1.86a6.84 6.84 0 0 1-5.62-3.64H1v-6.42h2.63a6.85 6.85 0 0 1 1.72-2.1l-.94-3.24zm11.13 5.48h-6.41v1.84h6.41v-1.84zM13.38 1a2.3 2.3 0 1 1 0 4.58 2.3 2.3 0 0 1 0-4.58z"/></symbol><symbol id="icon-pinterest" viewBox="0 0 24 24"><path fill-rule="evenodd" d="M12 0C5.4 0 0 5.4 0 12c0 5.1 3.2 9.4 7.6 11.2-.1-.9-.2-2.4 0-3.4l1.4-6s-.3-.8-.3-1.8c0-1.7 1-2.9 2.2-2.9 1 0 1.5.8 1.5 1.7 0 1-.7 2.6-1 4-.3 1.2.6 2.2 1.8 2.2 2.1 0 3.8-2.2 3.8-5.5 0-2.9-2.1-4.9-5-4.9a5.2 5.2 0 0 0-5.4 5.2c0 1 .4 2.1.9 2.7.1.1.1.2.1.3-.1.4-.3 1.2-.3 1.4-.1.2-.2.3-.4.2-1.5-.7-2.4-2.9-2.4-4.6 0-3.8 2.8-7.3 7.9-7.3 4.2 0 7.4 3 7.4 6.9 0 4.1-2.6 7.5-6.2 7.5-1.2 0-2.4-.6-2.8-1.4 0 0-.6 2.3-.7 2.9-.3 1-1 2.3-1.5 3.1A12.04 12.04 0 0 0 24 12c0-6.6-5.4-12-12-12z"/></symbol><symbol id="icon-play-outlined" viewBox="0 0 24 24"><path fill-rule="evenodd" d="M5.55 22.83A1 1 0 0 1 4 22V2a1 1 0 0 1 1.55-.83l15 10a1 1 0 0 1 0 1.66l-15 10zM18.2 12 6 3.87v16.26L18.2 12z"/></symbol><symbol id="icon-play" viewBox="0 0 24 24"><path fill-rule="evenodd" d="M20.96 11.17 5.6 1.17c-.31-.2-.72-.23-1.05-.05A1 1 0 0 0 4 2v20c0 .37.2.7.54.88a1.05 1.05 0 0 0 1.05-.05l15.37-10a1 1 0 0 0 .46-.83 1 1 0 0 0-.46-.83z"/></symbol><symbol id="icon-plus" viewBox="0 0 24 24"><path fill-rule="evenodd" d="M12 1a1 1 0 0 1 1 1v9h9a1 1 0 0 1 1 .88V12a1 1 0 0 1-1 1h-9v9a1 1 0 0 1-.88 1H12a1 1 0 0 1-1-1v-9H2a1 1 0 0 1-1-.88V12a1 1 0 0 1 1-1h9V2a1 1 0 0 1 .88-1z"/></symbol><symbol id="icon-processing" viewBox="0 0 24 24"><path fill-rule="evenodd" d="M20.25 8.36a9 9 0 1 1-2.5-3.28 1 1 0 0 0 1.28-1.54 11 11 0 1 0 3.05 4 1 1 0 0 0-1.83.82z"/></symbol><symbol id="icon-refresh" viewBox="0 0 24 24"><path fill-rule="evenodd" d="M22 9.79 20.54 1 17.5 4.02a10.41 10.41 0 1 0-6.11 18.8 10.4 10.4 0 0 0 9.53-6.24.95.95 0 0 0-1.73-.76 8.51 8.51 0 1 1-3.04-10.45L13.2 8.32 22 9.8z"/></symbol><symbol id="icon-rachel-cruze" viewBox="0 0 24 24"><path fill-rule="evenodd" d="M16.73 17.66a4.92 4.92 0 0 1-3.61-1.46 5.21 5.21 0 0 1-1.47-3.87 5.32 5.32 0 0 1 7.72-4.96c.72.38 1.09.84 1.09 1.4 0 .2-.07.39-.2.57a.68.68 0 0 1-.59.27c-.54 0-.87-.32-.99-.95a1.9 1.9 0 0 0-.45-.99c-.22-.19-.63-.28-1.24-.28-1.1 0-1.92.38-2.48 1.14-.55.76-.82 1.9-.82 3.43 0 1.58.3 2.82.89 3.7.59.9 1.49 1.35 2.69 1.35 1.62 0 2.65-.74 3.1-2.21h.53c-.56 1.9-1.95 2.86-4.17 2.86zM10.86 9.2c-.4 0-.72-.3-.93-.9-.15-.41-.37-.62-.66-.62-.35 0-.77.24-1.27.72-.49.48-.8.97-.94 1.49a8.5 8.5 0 0 0-.2 2.12v1.8c0 1.07 0 1.74.03 2.02s.15.49.35.64c.2.14.57.22 1.1.22h.34v.56H3.34v-.56h.26c.5 0 .84-.07 1.05-.2.2-.14.33-.33.37-.58.04-.24.06-.94.06-2.1v-2.84c0-1.08-.01-1.76-.04-2.03a.87.87 0 0 0-.35-.64c-.2-.15-.57-.23-1.09-.23h-.26v-.55c.77-.09 1.78-.33 3.02-.72.24.64.37 1.5.4 2.56.27-.73.72-1.33 1.35-1.83a3 3 0 0 1 1.83-.73c.54 0 .97.17 1.28.5.31.34.46.68.46 1.03 0 .24-.07.44-.23.62a.77.77 0 0 1-.59.25zM0 24h24V0H0v24z"/></symbol><symbol id="icon-ramsey-plus" viewBox="0 0 24 24"><path d="m11.06 13.38 3.2 5.2h-4.9l-3.04-5.2h4.74zm6.78-5.3c.04.12.1.11.16-.03.06.05.29.43.37.45 0 .08.03.25.1.27.09.23.18.43.3.58.09.13-.19 1.55-.24 1.53.06.04 1.27 0 2.34.02 1.08.02 1.84.25 1.83.2.09.01-.06.24-.1.17-.06.07-.37.13-.45.1l.01.01a.2.2 0 0 1 .06.08c0 .04.58.3.72.34-.04.14-.07.22-.02.16 0 .11-.1.21-.17.26l-.01.01c.03 0 .04.03.05.1v.01c-.13.02-4.56.47-4.76.54-.02.06-1.1 4.3-1.15 4.4-.05.01-.24.15-.34.17 0-.17-.01-.28-.06-.34-.05-.07-.16.06-.2.12-.06-.02-.11-.1-.13-.07-.09-.02-.33-.54-.31-.65-.08.08-.1.2-.09.33-.04-.16-.13-.26-.27-.3-.01-.86.01-1.73.2-3.17 0-.02-2.14.24-2.76.44-.01-.09 0-.14.06-.16l.04-.01-.13-.11c-.02.05-.12.05-.12.08-.18-.2-.96-1.53-.99-1.56 0-.3 1.8-.84 4.35-1.12.28-1.3.59-1.6.93-2.66.05-.06.56-.33.61-.3.08-.04.14 0 .17.12zm-13.38 5.3v3.67H.02v-3.67h4.44zm2.53-10.3c1.63 0 2.89.2 3.43.43 1.86.8 2.42 2.92 2.42 4.12 0 1.2-.56 3.32-2.42 4.11-.5.22-1.16.42-3.16.44H.02v-9.1H7zm-.61 2.89H4.46v3.27h1.83c.7.02 2.03-.02 2.13-1.43V7.6c0-1.52-1.3-1.62-2.04-1.62z"/></symbol><symbol id="icon-ramsey" viewBox="0 0 24 24"><path fill-rule="evenodd" d="M13.55 9.43V9.4c0-1.3-1.15-1.32-1.75-1.32h-1.5v2.67h1.5c.6 0 1.75-.03 1.75-1.32zM0 0v24h24V0H0zm6.7 5.7h5.67a8.5 8.5 0 0 1 2.8.35c1.52.65 1.97 2.38 1.97 3.36 0 .99-.45 2.72-1.96 3.36-.44.19-1 .36-2.81.36H6.69V5.7zm3.6 11.38H6.7v-3h3.6v3zm4 1.25-2.47-4.24h3.86l2.6 4.24h-4z"/></symbol><symbol id="icon-search" viewBox="0 0 24 24"><path fill-rule="evenodd" d="M10 1a9 9 0 0 1 7.03 14.62l5.68 5.67a1 1 0 0 1-1.42 1.42l-5.67-5.68A9 9 0 1 1 10 1zm0 2a7 7 0 1 0 4.94 11.96v-.01l.02-.01A7 7 0 0 0 10 3z"/></symbol><symbol id="icon-settings-outlined" viewBox="0 0 24 24"><path fill-rule="evenodd" d="M13.36 1a1 1 0 0 1 1 .86l.31 2.32c.33.1.66.24.97.4l1.86-1.41a1 1 0 0 1 1.31.09l1.93 1.93a1 1 0 0 1 .09 1.3l-1.41 1.87c.15.31.29.64.4.97l2.32.32c.5.06.86.49.86.99v2.72a1 1 0 0 1-.87 1l-2.3.3a8.2 8.2 0 0 1-.41.98l1.41 1.86a1 1 0 0 1-.09 1.31l-1.93 1.93a1 1 0 0 1-1.3.09l-1.87-1.41c-.31.15-.64.29-.97.4l-.32 2.32a1 1 0 0 1-.99.86h-2.72a1 1 0 0 1-1-.87l-.3-2.3a8.2 8.2 0 0 1-.98-.41L6.5 20.83a1 1 0 0 1-1.31-.09l-1.93-1.93a1 1 0 0 1-.09-1.3l1.41-1.87a8.2 8.2 0 0 1-.4-.97l-2.32-.32a1 1 0 0 1-.86-.99v-2.72a1 1 0 0 1 .86-1l2.32-.31c.1-.33.24-.66.4-.97L3.17 6.5a1 1 0 0 1 .09-1.31l1.93-1.93a1 1 0 0 1 1.3-.1l1.87 1.42c.31-.15.64-.29.97-.4l.32-2.32a1 1 0 0 1 .99-.86zm-.87 2h-.98l-.29 2.09a1 1 0 0 1-.74.83 6.2 6.2 0 0 0-1.7.7 1 1 0 0 1-1.12-.05L5.98 5.29l-.7.7 1.28 1.67a1 1 0 0 1 .06 1.12 6.2 6.2 0 0 0-.7 1.7 1 1 0 0 1-.83.74L3 11.51v.98l2.09.29a1 1 0 0 1 .83.74c.15.6.39 1.17.7 1.7a1 1 0 0 1-.05 1.12l-1.28 1.68.7.7 1.67-1.28a1 1 0 0 1 1.12-.06c.53.31 1.1.55 1.7.7.4.1.7.43.75.84L11.5 21h.98l.29-2.09a1 1 0 0 1 .74-.83 6.2 6.2 0 0 0 1.7-.7 1 1 0 0 1 1.12.05l1.68 1.28.7-.7-1.28-1.67a1 1 0 0 1-.06-1.12c.31-.53.55-1.1.7-1.7a1 1 0 0 1 .84-.75L21 12.5v-.98l-2.09-.29a1 1 0 0 1-.83-.74 6.2 6.2 0 0 0-.7-1.7 1 1 0 0 1 .05-1.12l1.28-1.68-.7-.7-1.67 1.28a1 1 0 0 1-1.12.06 6.2 6.2 0 0 0-1.7-.7 1 1 0 0 1-.74-.83L12.49 3zM12 8.27a3.73 3.73 0 1 1 0 7.46 3.73 3.73 0 0 1 0-7.46zm0 2a1.73 1.73 0 1 0 0 3.46 1.73 1.73 0 0 0 0-3.46z"/></symbol><symbol id="icon-settings" viewBox="0 0 24 24"><path fill-rule="evenodd" d="M23 13.83v-3.66l-3.06-.39a8.19 8.19 0 0 0-.76-1.83l1.9-2.43-2.6-2.6-2.43 1.9a8.19 8.19 0 0 0-1.83-.76L13.83 1h-3.66l-.39 3.06c-.64.18-1.25.43-1.83.76l-2.43-1.9-2.6 2.6 1.9 2.43c-.33.58-.58 1.2-.76 1.83L1 10.17v3.66l3.06.39c.18.64.43 1.25.76 1.83l-1.9 2.43 2.6 2.6 2.43-1.9c.58.33 1.2.58 1.83.76l.39 3.06h3.66l.39-3.06a8.19 8.19 0 0 0 1.83-.76l2.43 1.9 2.6-2.6-1.9-2.43c.33-.58.58-1.2.76-1.83l3.06-.39zm-11 1.84a3.67 3.67 0 1 1 0-7.34 3.67 3.67 0 0 1 0 7.34z"/></symbol><symbol id="icon-share" viewBox="0 0 24 24"><path fill-rule="evenodd" d="M7.56 8.11a1 1 0 1 1 0 2H5v9.56h14V10.1h-2.56a1 1 0 0 1 0-2H20a1 1 0 0 1 1 1v11.56a1 1 0 0 1-1 1H4a1 1 0 0 1-1-1V9.1a1 1 0 0 1 1-1zM12.02 1a1 1 0 0 1 .35.07l.05.02a1.02 1.02 0 0 1 .18.1l.03.03.01.01.01.01.06.05 3.55 3.56a1 1 0 0 1-1.32 1.5l-.1-.09L13 4.41v10.03a1 1 0 0 1-.88 1H12a1 1 0 0 1-1-.88V4.41L9.15 6.26a1 1 0 0 1-1.32.09l-.1-.09a1 1 0 0 1-.08-1.32l.09-.1 3.55-3.55.08-.07a.95.95 0 0 1 .1-.07l.05-.03.06-.03.05-.02a.99.99 0 0 1 .22-.06h.07L12 1h.02zm.6.22.09.07-.07-.06h-.01zm-.7-.22zM12 1h-.07.02a1 1 0 0 1 .03 0H12z"/></symbol><symbol id="icon-show-outlined" viewBox="0 0 24 24"><path fill-rule="evenodd" d="M12 4c2.93 0 5.6 1.44 7.96 3.8a20.17 20.17 0 0 1 2.9 3.7 1 1 0 0 1 0 1 20.17 20.17 0 0 1-2.91 3.71C17.6 18.56 14.94 20 12 20c-2.93 0-5.6-1.44-7.96-3.8a20.17 20.17 0 0 1-2.9-3.7 1 1 0 0 1 0-1 20.17 20.17 0 0 1 2.9-3.7C6.4 5.44 9.06 4 12 4zm0 2C9.68 6 7.47 7.19 5.46 9.2A18.19 18.19 0 0 0 3.18 12a17.05 17.05 0 0 0 2.28 2.8C7.47 16.8 9.68 18 12 18c2.32 0 4.53-1.19 6.54-3.2a18.19 18.19 0 0 0 2.28-2.8 17.05 17.05 0 0 0-2.28-2.8C16.53 7.2 14.32 6 12 6zm0 2a4 4 0 1 1 0 8 4 4 0 0 1 0-8zm0 2a2 2 0 1 0 0 4 2 2 0 0 0 0-4z"/></symbol><symbol id="icon-show" viewBox="0 0 24 24"><path fill-rule="evenodd" d="M22.86 11.85C22.68 11.57 18.48 5 12 5 5.52 5 1.32 11.57 1.14 11.85a.92.92 0 0 0 0 .97c.18.28 4.38 6.85 10.86 6.85 6.48 0 10.68-6.57 10.86-6.85a.92.92 0 0 0 0-.97zM12 16a3.67 3.67 0 1 1 0-7.33A3.67 3.67 0 0 1 12 16z"/></symbol><symbol id="icon-shuffle" viewBox="0 0 24 24"><path fill-rule="evenodd" d="m19.76 12.73.09.09 2.86 2.85a1 1 0 0 1 .14.19l.03.04.03.06.02.05a.99.99 0 0 1 .07.35v.08-.04.06l-.01.07a1.09 1.09 0 0 1-.06.22l-.02.05a1.02 1.02 0 0 1-.1.18l-.03.03V17a1 1 0 0 1-.06.07l-.01.02-2.86 2.86a1 1 0 0 1-1.5-1.32l.09-.1 1.14-1.15h-2.53a4.92 4.92 0 0 1-3.42-1.4l-.2-.19-.57-.66a1 1 0 0 1 1.43-1.4l.09.1.52.6c.57.58 1.22.9 1.95.94l.2.01h2.54l-1.15-1.15a1 1 0 0 1-.09-1.32l.09-.1a1 1 0 0 1 1.32-.08zM18.44 3.3a1 1 0 0 1 1.41 0l2.86 2.86a1 1 0 0 1 .29.7v.03a1 1 0 0 1 0 .06v-.08a1 1 0 0 1-.3.7l.08-.08-.07.08-2.86 2.86a1 1 0 1 1-1.41-1.41l1.14-1.15h-2.53c-.74 0-1.4.26-1.95.75l-.16.15-6.33 7.09c-.9.9-2.1 1.46-3.32 1.52l-.24.01H2a1 1 0 0 1-.12-2h3.17c.7 0 1.42-.3 1.96-.77l.15-.13 6.32-7.1a4.97 4.97 0 0 1 3.3-1.52h2.81L18.44 4.7a1 1 0 0 1-.09-1.32zM23 16.46v.01-.01zM5.05 5.86c1.22 0 2.44.5 3.42 1.4l.2.18.57.67a1 1 0 0 1-1.44 1.4l-.08-.1-.52-.6a3.18 3.18 0 0 0-1.96-.95H2a1 1 0 0 1-.12-2h3.17zm17.68 11.2.03-.03.02-.02-.05.06z"/></symbol><symbol id="icon-sign-out" viewBox="0 0 24 24"><path fill-rule="evenodd" d="M6.82 1a1 1 0 0 0-1 1v2.73a1 1 0 1 0 2 0V3h10.73v18H7.82v-1.73a1 1 0 1 0-2 0V22a1 1 0 0 0 1 1h12.73a1 1 0 0 0 1-1V2a1 1 0 0 0-1-1zm-2.6 11.63.02.02.05.06-.07-.09zm0 0 .07.08 3.64 3.63a1 1 0 0 0 1.5-1.32l-.09-.1L7.41 13h8.5a1 1 0 0 0 1-.88V12a1 1 0 0 0-.88-1H7.4l1.93-1.93a1 1 0 0 0 .09-1.32l-.09-.1a1 1 0 0 0-1.32-.08l-.1.09-3.63 3.63a1 1 0 0 0-.08.1l-.02.02a1.05 1.05 0 0 0-.18.44V12a1.02 1.02 0 0 0 .04.27v.04a.96.96 0 0 0 .15.28l.02.03z"/></symbol><symbol id="icon-smartdollar" viewBox="0 0 24 24"><path fill-rule="evenodd" d="M13.05 22.27a1.3 1.3 0 0 1-1.31 1.32c-.54 0-1.07-.34-1.22-.88zm.87-2.43a.7.7 0 0 1 .78.54c.05.34-.2.68-.53.73l-4.48.78c-.39.04-.73-.2-.77-.54a.65.65 0 0 1 .53-.73zM11.76.21c2.14 0 4.03.82 5.44 2.18a7.57 7.57 0 0 1 2.24 5.35c0 2.04-.78 3.26-1.6 4.57-.68 1.12-1.37 2.24-1.37 3.99 0 .72-.29 1.4-.77 1.9-.4.33-.88.62-1.41.72h-.05l-4.86.83c-.4.05-.73-.2-.78-.54-.05-.39.2-.73.53-.78l2.05-.34V12.6a3.57 3.57 0 0 1-2.05-.83c-.1-.1-.14-.24-.04-.38l.43-.59c.1-.14.3-.14.44-.05.44.4 1.07.68 1.85.68s1.16-.34 1.16-.73c0-1.16-3.84-.38-3.84-2.86 0-.98.78-1.85 2.05-2v-.97c0-.2.14-.34.34-.34h.58c.2 0 .34.15.34.34v.97c.58.1 1.12.34 1.56.68.1.1.14.25.04.4l-.43.58c-.1.1-.25.14-.4.05a3.06 3.06 0 0 0-1.7-.54c-.58 0-.92.3-.92.68 0 1.07 3.8.34 3.8 2.82 0 1.07-.64 1.9-1.95 2.1v5.24h.1l1.4-.24h.1c.3-.05.54-.2.73-.4.3-.23.44-.57.44-.96 0-2.14.78-3.4 1.56-4.67a6.73 6.73 0 0 0 1.3-3.84c0-1.7-.67-3.3-1.84-4.42l-.19-.2a6.19 6.19 0 0 0-4.28-1.65c-1.75 0-3.3.73-4.47 1.85a6.25 6.25 0 0 0-1.85 4.42c0 1.7.63 2.77 1.31 3.84.78 1.26 1.56 2.53 1.56 4.62 0 .2 0 .39.1.58.14.34-.05.68-.4.83-.33.14-.67-.05-.82-.4-.15-.33-.2-.72-.2-1.06a7.15 7.15 0 0 0-1.36-3.89c-.77-1.26-1.5-2.48-1.5-4.52 0-2.09.87-3.99 2.23-5.3a7.49 7.49 0 0 1 5.4-2.23z"/></symbol><symbol id="icon-smartvestor" viewBox="0 0 24 24"><path d="M5.41 12.86a6.59 6.59 0 0 0 6.38 6.61h.23v4.22A10.68 10.68 0 0 1 1.4 13.15v-.29h4.01zm18.44 0c0 5.9-4.58 10.73-10.45 10.82h-.17v-4.2a6.6 6.6 0 0 0 6.6-6.5v-.12h4.02zM13.23 1.04c5.85 0 10.47 4.52 10.62 10.33v.3h-4.01a6.59 6.59 0 0 0-6.38-6.62h-.23V1.04zm-1.2-1v11.62H0v-.01c0-.26.11-4.7 3.6-8.21C7.2-.18 12.02.04 12.02.04z"/></symbol><symbol id="icon-sort" viewBox="0 0 24 24"><path fill-rule="evenodd" d="M18.07 19h.02a1 1 0 0 1-.06 0H18h.07zM6 17a1 1 0 0 1 0 2H2a1 1 0 0 1 0-2zm11.3 1.7.05.06.03.03a1 1 0 0 1-.09-.08zM2 11h8a1 1 0 0 1 .12 2H2a1 1 0 0 1-.12-2H10zm12-6a1 1 0 0 1 .12 2H2a1 1 0 0 1-.12-2H14zm4.08 14H18a1.02 1.02 0 0 1-.37-.07l-.05-.02a1.02 1.02 0 0 1-.18-.1l-.03-.04-.08-.06-4-4a1 1 0 0 1 1.32-1.5l.1.08L17 15.6V6a1 1 0 0 1 .77-.97l.11-.02L18 5a1 1 0 0 1 1 .88v9.72l2.3-2.3a1 1 0 0 1 1.31-.08l.1.08a1 1 0 0 1 .08 1.32l-.08.1-4 4a1 1 0 0 1-.19.14l-.04.03-.06.03-.05.02a.99.99 0 0 1-.22.06h-.07zm-.71-.23-.02-.01.02.01v.01z"/></symbol><symbol id="icon-speedy-cart-outlined" viewBox="0 0 24 24"><path fill-rule="evenodd" d="M0 16a1 1 0 0 1 1-1h22a1 1 0 1 1 0 2H1a1 1 0 0 1-1-1Zm2-4a1 1 0 0 1 1-1h4a1 1 0 1 1 0 2H3a1 1 0 0 1-1-1ZM0 1a1 1 0 0 1 1-1h4a1 1 0 0 1 1 1v2h15a1 1 0 0 1 .97 1.243l-2 8a1 1 0 1 1-1.94-.486L19.72 5H5a1 1 0 0 1-1-1V2H1a1 1 0 0 1-1-1Z"/><path fill-rule="evenodd" d="M4 8a1 1 0 0 1 1-1h4a1 1 0 0 1 0 2H5a1 1 0 0 1-1-1ZM5.5 24a2.5 2.5 0 1 0 0-5 2.5 2.5 0 0 0 0 5Zm15 0a2.5 2.5 0 1 0 0-5 2.5 2.5 0 0 0 0 5Z"/></symbol><symbol id="icon-spotify" viewBox="0 0 24 24"><path d="M12 0C5.4 0 0 5.4 0 12s5.4 12 12 12 12-5.4 12-12S18.7 0 12 0Zm5.5 17.3c-.2.4-.7.5-1 .2-2.8-1.7-6.4-2.1-10.6-1.1-.4.1-.8-.2-.9-.5-.1-.4.2-.8.5-.9 4.6-1 8.5-.6 11.6 1.3.5.2.6.7.4 1ZM19 14c-.3.4-.8.6-1.3.3-3.2-2-8.2-2.6-11.9-1.4-.5.1-1-.1-1.1-.6-.1-.5.1-1 .6-1.1 4.4-1.3 9.8-.7 13.5 1.6.3.2.5.8.2 1.2Zm.1-3.3C15.2 8.4 8.8 8.2 5.2 9.3c-.6.2-1.2-.2-1.4-.7-.2-.6.2-1.2.7-1.4 4.3-1.3 11.3-1 15.7 1.6.5.3.7 1 .4 1.6-.3.4-1 .6-1.5.3Z"/></symbol><symbol id="icon-star-half-outlined" viewBox="0 0 24 24"><path fill-rule="evenodd" d="m12.9 2.06 2.86 5.79 6.38.93a1 1 0 0 1 .56 1.7l-4.62 4.5 1.09 6.37a1 1 0 0 1-1.45 1.06l-5.72-3-5.71 3a1 1 0 0 1-1.45-1.06L5.93 15 1.3 10.5a1 1 0 0 1 .56-1.71l6.39-.93 2.85-5.8a1 1 0 0 1 1.8 0zm-.9 2.7v12.51a1 1 0 0 1 .47.12l4.38 2.3-.83-4.88a1 1 0 0 1 .28-.89l3.55-3.46-4.9-.7a1 1 0 0 1-.76-.56L12 4.76z"/></symbol><symbol id="icon-star-half" viewBox="0 0 24 24"><path fill-rule="evenodd" d="M12 1.5v17.9l-5.71 3a1 1 0 0 1-1.45-1.05L5.93 15 1.3 10.5a1 1 0 0 1 .56-1.71l6.39-.93 2.85-5.8a.99.99 0 0 1 .9-.55z"/></symbol><symbol id="icon-star-outlined" viewBox="0 0 24 24"><path fill-rule="evenodd" d="m8.25 7.85 2.85-5.8a1 1 0 0 1 1.8 0l2.85 5.8 6.4.93a1 1 0 0 1 .55 1.7l-4.63 4.5 1.1 6.37a1 1 0 0 1-1.46 1.06l-5.71-3-5.71 3a1 1 0 0 1-1.46-1.06L5.93 15 1.3 10.5a1 1 0 0 1 .56-1.71l6.39-.93zM12 4.76 9.8 9.2a1 1 0 0 1-.75.55l-4.9.71 3.55 3.46a1 1 0 0 1 .29.89l-.84 4.88 4.38-2.3a1 1 0 0 1 .94 0l4.38 2.3-.84-4.88a1 1 0 0 1 .3-.89l3.54-3.46-4.9-.7a1 1 0 0 1-.76-.56L12 4.76z"/></symbol><symbol id="icon-star" viewBox="0 0 24 24"><path fill-rule="evenodd" d="m8.25 7.85 2.85-5.8a1 1 0 0 1 1.8 0l2.86 5.8 6.38.93a1 1 0 0 1 .56 1.7l-4.62 4.5 1.09 6.37a1 1 0 0 1-1.45 1.06l-5.72-3-5.71 3a1 1 0 0 1-1.45-1.06L5.93 15 1.3 10.5a1 1 0 0 1 .56-1.71l6.39-.93z"/></symbol><symbol id="icon-stop-outlined" viewBox="0 0 24 24"><path fill-rule="evenodd" d="M1 2a1 1 0 0 1 1-1h20a1 1 0 0 1 1 1v20a1 1 0 0 1-1 1H2a1 1 0 0 1-1-1V2zm2 1v18h18V3H3z"/></symbol><symbol id="icon-stop" viewBox="0 0 24 24"><path fill-rule="evenodd" d="M22 1H2a1 1 0 0 0-1 1v20a1 1 0 0 0 1 1h20a1 1 0 0 0 1-1V2a1 1 0 0 0-1-1z"/></symbol><symbol id="icon-success-outlined" viewBox="0 0 24 24"><path fill-rule="evenodd" d="M12 1a11 11 0 1 1 0 22 11 11 0 0 1 0-22zm0 2a9 9 0 1 0 0 18 9 9 0 0 0 0-18zm4.6 5.03a1 1 0 1 1 1.4 1.4l-7.07 7.08a1 1 0 0 1-1.41 0l-3.54-3.54a1 1 0 1 1 1.41-1.4l2.83 2.82z"/></symbol><symbol id="icon-success" viewBox="0 0 24 24"><path fill-rule="evenodd" d="M12 1a11 11 0 1 1 0 22 11 11 0 0 1 0-22zm4.6 7.02-6.37 6.37-2.83-2.83A1 1 0 1 0 6 12.97l3.53 3.54a1 1 0 0 0 1.42 0L18 9.44a1 1 0 1 0-1.42-1.42z"/></symbol><symbol id="icon-tag-outlined" viewBox="0 0 24 24"><path fill-rule="evenodd" d="M1 2a1 1 0 0 1 1-1h10a1 1 0 0 1 .707.293l9.414 9.413a3 3 0 0 1 0 4.243m0 0-7.171 7.172a3 3 0 0 1-4.244.001l-9.413-9.415A1 1 0 0 1 1 12V2m13.242 19.414-.707-.707 7.172-7.172a1 1 0 0 0 0-1.415L11.586 3H3v8.586l9.12 9.122a1 1 0 0 0 1.415 0l.707.706z"/><path fill-rule="evenodd" d="M8 7a1 1 0 1 0 0 2 1 1 0 0 0 0-2zM5 8a3 3 0 1 1 6 0 3 3 0 0 1-6 0z"/></symbol><symbol id="icon-tag" viewBox="0 0 24 24"><path d="m22.121 10.706-9.415-9.413A1 1 0 0 0 12 1H2a1 1 0 0 0-1 1v10a1 1 0 0 0 .293.707l9.413 9.415a3 3 0 0 0 4.243 0l7.172-7.172a3 3 0 0 0 0-4.243zM8 10a2 2 0 1 1 2-2 2 2 0 0 1-2 2z"/></symbol><symbol id="icon-thumbs-down-outlined" viewBox="0 0 24 24"><path fill-rule="evenodd" d="M13.43 22.952a2.006 2.006 0 0 1-.896-.005l-.007-.002c-.921-.223-1.824-.692-2.492-1.521-.673-.835-1.037-1.943-1.037-3.31v-3h-6a3.004 3.004 0 0 1-2.955-2.497 3 3 0 0 1 .09-1.386l2.769-9A3 3 0 0 1 5.769.113H16a1 1 0 1 1 0 2H5.768a1 1 0 0 0-.956.706l-2.769 9A1 1 0 0 0 3 13.113h7a1 1 0 0 1 1 1v4c0 1.006.261 1.644.593 2.055.334.415.812.69 1.402.832l.004.001-.236.972.229-.973h.003l.002-.001.002-.002v-3.883a1 1 0 0 1 .232-.64l5-6a1 1 0 1 1 1.537 1.28l-4.769 5.721v3.52a2.007 2.007 0 0 1-1.569 1.957Z"/><path fill-rule="evenodd" d="M23.998 13.113a1 1 0 0 1-1 1h-4a1 1 0 0 1-1-1v-12a1 1 0 0 1 1-1h4a1 1 0 0 1 1 1v12Zm-2-1v-10h-2v10h2Z"/></symbol><symbol id="icon-thumbs-down" viewBox="0 0 24 24"><path d="M21.001 14h2a1 1 0 0 0 1-1V1a1 1 0 0 0-1-1h-3v13a1 1 0 0 0 1 1Zm-18.881.866c.285.089.582.133.881.133h6v3c0 3.824 2.59 4.942 3.958 5a1.017 1.017 0 0 0 .734-.277 1 1 0 0 0 .308-.723v-4.638l4-4.8V0H5.771a2.985 2.985 0 0 0-2.87 2.118l-2.769 9a3 3 0 0 0 1.987 3.75Z"/></symbol><symbol id="icon-thumbs-up-outlined" viewBox="0 0 24 24"><path fill-rule="evenodd" d="M10.569.162c.295-.066.601-.065.896.004l.006.002c.921.223 1.824.692 2.493 1.522C14.636 2.524 15 3.633 15 5v3h6a3.003 3.003 0 0 1 2.956 2.496 3 3 0 0 1-.09 1.386l-2.77 9A3 3 0 0 1 18.23 23H8a1 1 0 1 1 0-2h10.229a1 1 0 0 0 .956-.706l2.77-9A1 1 0 0 0 20.998 10H14a1 1 0 0 1-1-1V5c0-1.006-.262-1.644-.593-2.055-.334-.415-.813-.689-1.402-.832L11 2.112l.235-.972-.229.974-.002-.001-.003.002-.001.002-.001.002V6a1 1 0 0 1-.232.64l-5 6a1 1 0 0 1-1.536-1.28L9 5.638V2.119A2.008 2.008 0 0 1 10.569.162z"/><path fill-rule="evenodd" d="M0 10a1 1 0 0 1 1-1h4a1 1 0 0 1 1 1v12a1 1 0 0 1-1 1H1a1 1 0 0 1-1-1V10zm2 1v10h2V11H2z"/></symbol><symbol id="icon-thumbs-up" viewBox="0 0 24 24"><path d="M3 9H1a1 1 0 0 0-1 1v12a1 1 0 0 0 1 1h3V10a1 1 0 0 0-1-1zm18.882-.867A2.986 2.986 0 0 0 21 8h-6V5c0-3.824-2.589-4.942-3.958-5a1.017 1.017 0 0 0-.734.277A1 1 0 0 0 10 1v4.638l-4 4.8V23h12.23a2.985 2.985 0 0 0 2.87-2.118l2.769-9a3 3 0 0 0-1.987-3.749z"/></symbol><symbol id="icon-time-outlined" viewBox="0 0 24 24"><path fill-rule="evenodd" d="M12 1a11 11 0 1 1 0 22 11 11 0 0 1 0-22zm0 2a9 9 0 1 0 0 18 9 9 0 0 0 0-18zm0 2.55a1 1 0 0 1 1 1V11h4.45a1 1 0 0 1 0 2H12a1 1 0 0 1-1-1V6.55a1 1 0 0 1 1-1z"/></symbol><symbol id="icon-time" viewBox="0 0 24 24"><path fill-rule="evenodd" d="M12 1a11.01 11.01 0 0 0 0 22 11.01 11.01 0 0 0 0-22zm6.42 11.92h-7.34V5.58h1.84v5.5h5.5v1.84z"/></symbol><symbol id="icon-tools-outlined" viewBox="0 0 24 24"><path fill-rule="evenodd" d="M16.31 1.05c.88-.13 1.78 0 2.6.35a1 1 0 0 1 .3 1.63l-2.1 2.09 1.87 1.85 2.1-2.1a1 1 0 0 1 1.65.36c.43 1.17.47 2.44.12 3.62a6.21 6.21 0 0 1-4.76 4.35c-.8.12-1.62.1-2.42-.06L8.13 21.6a4 4 0 0 1-6 .24 4.12 4.12 0 0 1 .25-5.91l6.3-5.56-1.93-1.94-1.33.45a1 1 0 0 1-.93-.16l-.1-.09L1.85 6.1a1 1 0 0 1-.08-1.32l.08-.1L4.4 2.12a1 1 0 0 1 1.32-.09l.09.09 2.56 2.55a1 1 0 0 1 .27.9l-.03.13-.45 1.33 2.03 2.02.7-.61a4.76 4.76 0 0 1-.12-.87V7.3a6.11 6.11 0 0 1 5.54-6.24zm3.65 12.94.1.09 1.77 1.77a4.2 4.2 0 0 1 .01 5.98 4.2 4.2 0 0 1-5.81.17l-.18-.16-2.69-2.7a1 1 0 0 1 1.32-1.5l.1.09 2.7 2.7a2.2 2.2 0 0 0 3.15-.01 2.2 2.2 0 0 0 .13-3l-.14-.15-1.78-1.78a1 1 0 0 1 1.32-1.5zm-3.6-10.94a4.14 4.14 0 0 0-3.6 4.23c0 .38.07.75.2 1.1a1 1 0 0 1-.26 1.13l-8.99 7.92a2.12 2.12 0 0 0-.13 3.04 2 2 0 0 0 3.03-.15l7.97-8.96a1 1 0 0 1 1.03-.3c.7.22 1.46.27 2.14.17a4.2 4.2 0 0 0 3.3-3.5L19.69 9.1a1 1 0 0 1-1.41 0l-3.29-3.26a1 1 0 0 1 0-1.42zM5.1 4.24 3.96 5.38 5.37 6.8l.86-.28.29-.86L5.1 4.24z"/></symbol><symbol id="icon-tools" viewBox="0 0 24 24"><path fill-rule="evenodd" d="m18.17 13.77 3.54 3.54a3.11 3.11 0 0 1 .13 4.25l-.13.15-.14.13a3.11 3.11 0 0 1-4.12 0l-.14-.13-3.98-3.98 3.2-3.96a7 7 0 0 0 1.64 0zM17.34 1.5c.76 0 1.49.17 2.14.46l-2.82 2.82 2.68 2.68 2.82-2.83a5.26 5.26 0 0 1-6.32 7.21l-7.69 9.5a3.8 3.8 0 1 1-5.36-5.37l6.6-5.34L6.15 7.4 5.02 8.54 1.5 5.02 5.02 1.5l3.52 3.52L7.4 6.16l3.36 3.35 1.52-1.23a5.29 5.29 0 0 1-.21-1.19l-.01-.31a5.28 5.28 0 0 1 5.28-5.28z"/></symbol><symbol id="icon-truck-outlined" viewBox="0 0 24 24"><path fill-rule="evenodd" d="M8 6a1 1 0 0 1 1-1h9a1 1 0 0 1 .97.757l.889 3.554 3.588 1.795A1 1 0 0 1 24 12v6a1 1 0 0 1-1 1h-5.171a1 1 0 1 1 0-2H22v-4.382l-3.447-1.724a1 1 0 0 1-.523-.652L17.22 7H9a1 1 0 0 1-1-1z"/><path fill-rule="evenodd" d="M0 2a1 1 0 0 1 1-1h8a1 1 0 0 1 1 1v16a1 1 0 0 1-1 1H1a1 1 0 0 1-1-1V2zm2 1v14h6V3H2zm13 14a2 2 0 1 0 0 4 2 2 0 0 0 0-4zm-4 2a4 4 0 1 1 8 0 4 4 0 0 1-8 0zm3-11a1 1 0 0 1 1 1v1h1a1 1 0 1 1 0 2h-2a1 1 0 0 1-1-1V9a1 1 0 0 1 1-1z"/></symbol><symbol id="icon-truck" viewBox="0 0 24 24"><path d="M7 1H0v18h9V3a2 2 0 0 0-2-2zm16.447 10.105-3.589-1.794-.888-3.553A.999.999 0 0 0 18 5h-7v13c0 .549.051 1 .051 1 .252 2.244 2.139 4 4.449 4s4.197-1.756 4.449-4H23a1 1 0 0 0 1-1v-6c0-.379-.214-.725-.553-.895zM15.5 21c-1.378 0-2.5-1.121-2.5-2.5s1.122-2.5 2.5-2.5 2.5 1.121 2.5 2.5-1.122 2.5-2.5 2.5zM13 10V7h4.344L18 10h-5z"/></symbol><symbol id="icon-twitter" viewBox="0 0 24 24"><path fill-rule="evenodd" d="M24 4.6a9 9 0 0 1-2.8.8c1-.6 1.8-1.6 2.2-2.7-1 .6-2 1-3.1 1.2-.9-1-2.2-1.6-3.6-1.6a4.9 4.9 0 0 0-4.9 4.9c0 .4 0 .8.1 1.1-4.2-.2-7.8-2.2-10.2-5.2-.5.8-.7 1.6-.7 2.5 0 1.7.9 3.2 2.2 4.1-.8 0-1.6-.2-2.2-.6v.1c0 2.4 1.7 4.4 3.9 4.8-.4.1-.8.2-1.3.2-.3 0-.6 0-.9-.1.6 2 2.4 3.4 4.6 3.4a10 10 0 0 1-6.1 2.1c-.4 0-.8 0-1.2-.1a14 14 0 0 0 7.5 2.2c9.1 0 14-7.5 14-14v-.6c1-.7 1.8-1.6 2.5-2.5z"/></symbol><symbol id="icon-unlock-outlined" viewBox="0 0 24 24"><path fill-rule="evenodd" d="M12.283 1a5.5 5.5 0 0 1 5.444 5.555 1 1 0 1 1-2-.02A3.499 3.499 0 0 0 12.273 3h-.101a3.499 3.499 0 0 0-3.536 3.455v3.636h11.728a1 1 0 0 1 1 1V22a1 1 0 0 1-1 1H4a1 1 0 0 1-1-1V11.09a1 1 0 0 1 1-1h2.636V6.445A5.499 5.499 0 0 1 12.182 1h.101ZM7.636 12.09H5V21h14.364v-8.91H7.636Zm4.546 7.274a2.818 2.818 0 1 0 0-5.637 2.818 2.818 0 0 0 0 5.637Zm0-2a.818.818 0 1 1 0-1.637.818.818 0 0 1 0 1.637Z"/></symbol><symbol id="icon-unlock" viewBox="0 0 24 24"><path fill-rule="evenodd" d="M20.42 10.17H8.5V6.42a3.63 3.63 0 0 1 3.63-3.59h.12c2 .03 3.6 1.66 3.58 3.66l1.84.02A5.46 5.46 0 0 0 12.26 1h-.08a5.44 5.44 0 0 0-5.51 5.4v3.77H3.92a.9.9 0 0 0-.92.91v11c0 .51.41.92.92.92h16.5c.5 0 .91-.41.91-.92v-11a.9.9 0 0 0-.91-.91zm-8.25 8.25a1.83 1.83 0 1 1 0-3.67 1.83 1.83 0 0 1 0 3.67z"/></symbol><symbol id="icon-upload-outlined" viewBox="0 0 24 24"><path fill-rule="evenodd" d="M11.55 3.9a7.81 7.81 0 0 1 7.69 6.45 4.63 4.63 0 0 1-.88 9.2h-1.81a1 1 0 1 1 0-2h1.81a2.64 2.64 0 1 0-.01-5.28 1 1 0 0 1-1-.93 5.81 5.81 0 0 0-11.6.1 1 1 0 0 1-.76.92 2.63 2.63 0 0 0 .65 5.19h1.81a1 1 0 0 1 0 2H5.64a4.64 4.64 0 0 1-1.83-8.9 7.81 7.81 0 0 1 7.74-6.74zm.48 5.46a1.01 1.01 0 0 1 .24.04l.04.01a.96.96 0 0 1 .28.14l.03.02.03.03-.03-.02.03.02.06.05 2.72 2.73a1 1 0 0 1-1.32 1.5l-.09-.08L13 12.78v4.85a1 1 0 0 1-.88 1H12a1 1 0 0 1-1-.88v-4.97L9.98 13.8a1 1 0 0 1-1.32.08l-.1-.08a1 1 0 0 1-.08-1.32l.09-.1 2.72-2.73.08-.07h.01l.03-.03a1.05 1.05 0 0 1 .44-.18h.18zm.59.21v.01zm-.62-.2h-.09.09z"/></symbol><symbol id="icon-upload" viewBox="0 0 24 24"><path fill-rule="evenodd" d="M19.22 10.49a7.78 7.78 0 0 0-15.4.3 4.57 4.57 0 0 0 1.76 8.8h12.84a4.59 4.59 0 0 0 .8-9.1zm-6.3 2.68v3.66h-1.84v-3.66H7.42L12 8.58l4.58 4.59h-3.66z"/></symbol><symbol id="icon-video-outlined" viewBox="0 0 24 24"><path fill-rule="evenodd" d="M20.18 2A2.82 2.82 0 0 1 23 4.82v14.54a2.82 2.82 0 0 1-2.82 2.82H3.82A2.82 2.82 0 0 1 1 19.36V4.82A2.82 2.82 0 0 1 3.82 2h16.36zm0 2H3.82a.82.82 0 0 0-.82.82v14.54c0 .46.37.82.82.82h16.36c.45 0 .82-.36.82-.82V4.82a.82.82 0 0 0-.82-.82zm-9.44 3.62 5.45 3.64a1 1 0 0 1 0 1.66l-5.45 3.64a1 1 0 0 1-1.56-.83V8.45a1 1 0 0 1 1.56-.83z"/></symbol><symbol id="icon-video" viewBox="0 0 24 24"><path fill-rule="evenodd" d="M20.25 3H3.75A2.75 2.75 0 0 0 1 5.75v12.83a2.75 2.75 0 0 0 2.75 2.75h16.5A2.75 2.75 0 0 0 23 18.58V5.75A2.75 2.75 0 0 0 20.25 3zm-11 13.75V7.58l7.33 4.59-7.33 4.58z"/></symbol><symbol id="icon-volume-off-outlined" viewBox="0 0 24 24"><path fill-rule="evenodd" d="M21.3 1.3a1 1 0 0 1 1.4 1.4l-20 20a1 1 0 1 1-1.4-1.4l4.65-4.66H2.9a1 1 0 0 1-1-.89V8.36a1 1 0 0 1 .88-.99h7.07l7-5.26a1 1 0 0 1 1.6.69v1.33zm-3.85 8.8a1 1 0 0 1 1 .87V21.1a1 1 0 0 1-1.5.86l-.1-.06-5.62-4.22a1 1 0 0 1 1.1-1.67l.1.07 4.02 3.02v-8a1 1 0 0 1 1-1zm-1-3.97V4.91l-5.67 4.25a1 1 0 0 1-.47.2h-6.4v5.28h4.04l8.5-8.51z"/></symbol><symbol id="icon-volume-off" viewBox="0 0 24 24"><path fill-rule="evenodd" d="M1.269 22.693a.915.915 0 0 0 1.296 0L22.73 2.562a.917.917 0 0 0-1.296-1.294l-3.019 3.013v-1.45a.916.916 0 0 0-1.466-.733L9.86 7.405H2.833a.915.915 0 0 0-.916.915v7.32c0 .507.41.916.916.916H6.12l-4.85 4.843a.913.913 0 0 0 0 1.294Zm9.417-5.52 6.264 4.69a.913.913 0 0 0 .96.087.916.916 0 0 0 .506-.819V9.457l-7.73 7.717Z"/></symbol><symbol id="icon-volume-on-outlined" viewBox="0 0 24 24"><path fill-rule="evenodd" d="M14.87 3v18.14a1 1 0 0 1-1.6.8L6.23 16.7H2a1 1 0 0 1-1-1V8.44a1 1 0 0 1 1-1h4.23l7.04-5.24a1 1 0 0 1 1.6.8zm-2 2-5.7 4.24a1 1 0 0 1-.6.2H3v5.26h3.57a1 1 0 0 1 .6.2l5.7 4.24V5zm6.13.65a1 1 0 0 1 1.42 0 9.12 9.12 0 0 1 0 12.93A1 1 0 1 1 19 17.16a7.12 7.12 0 0 0 0-10.1 1 1 0 0 1 0-1.4zM17.77 8.1a5.47 5.47 0 0 1 0 7.86 1 1 0 1 1-1.4-1.42 3.47 3.47 0 0 0 0-5.02 1 1 0 1 1 1.4-1.42z"/></symbol><symbol id="icon-volume-on" viewBox="0 0 24 24"><path fill-rule="evenodd" d="M14.24 2.1c.28.13.46.4.5.7l.01.12v18.33a.92.92 0 0 1-1.37.8l-.1-.07-7.09-5.31H1.92a.92.92 0 0 1-.91-.81L1 15.75V8.42c0-.47.35-.86.81-.91l.1-.01H6.2l7.1-5.32a.9.9 0 0 1 .95-.08zm5.43 2.85.65.65a9.18 9.18 0 0 1 0 12.97l-.65.64-1.3-1.3.65-.64a7.34 7.34 0 0 0 0-10.37l-.65-.65 1.3-1.3zm-2.6 2.6.65.64a5.5 5.5 0 0 1 .18 7.6l-.18.18-.65.65-1.3-1.3.66-.64a3.67 3.67 0 0 0 .14-5.04l-.14-.15-.65-.65 1.3-1.3z"/></symbol><symbol id="icon-volume-outlined" viewBox="0 0 24 24"><path fill-rule="evenodd" d="m11.85 7 7.92-5.8a1 1 0 0 1 1.6.8v20a1 1 0 0 1-1.6.8L11.85 17H4a1 1 0 0 1-1-1V8a1 1 0 0 1 1-1h7.85zm7.51-3.03-6.59 4.84a1 1 0 0 1-.59.19H5v6h7.18a1 1 0 0 1 .6.2l6.58 4.83V3.97z"/></symbol><symbol id="icon-volume" viewBox="0 0 24 24"><path fill-rule="evenodd" d="M20.77 1.1a1.04 1.04 0 0 0-1.07.1L11.83 7H4.02A1 1 0 0 0 3 8v8a1 1 0 0 0 1.02 1h7.8l7.88 5.8a1.03 1.03 0 0 0 1.07.1 1 1 0 0 0 .56-.9V2a1 1 0 0 0-.56-.9z"/></symbol><symbol id="icon-youtube" viewBox="0 0 24 24"><path fill-rule="evenodd" d="M23.8 7.2s-.2-1.7-1-2.4c-.9-1-1.9-1-2.4-1-3.4-.2-8.4-.2-8.4-.2s-5 0-8.4.2c-.5.1-1.5.1-2.4 1-.7.7-1 2.4-1 2.4S0 9.1 0 11.1v1.8c0 1.9.2 3.9.2 3.9s.2 1.7 1 2.4c.9 1 2.1.9 2.6 1 1.9.2 8.2.2 8.2.2s5 0 8.4-.3c.5-.1 1.5-.1 2.4-1 .7-.7 1-2.4 1-2.4s.2-1.9.2-3.9V11c0-1.9-.2-3.8-.2-3.8zM9.5 15.1V8.4l6.5 3.4-6.5 3.3z"/></symbol></svg>